<svg width="57" height="50" viewBox="0 0 57 50" fill="none" xmlns="http://www.w3.org/2000/svg">
<path d="M45.3467 26.7588C45.3465 26.7596 45.3463 26.7608 45.346 26.7624L45.3467 26.7588ZM45.3467 26.7588C45.3467 26.7588 45.3466 26.7588 45.3466 26.7588L45.3467 26.7588ZM20.8842 49.5H24.4109V49.4908V49.47L24.4126 49.4492C24.4216 49.3413 24.4224 48.9191 24.4195 48.2769C24.4187 48.1214 24.4179 47.9549 24.4169 47.78C24.4141 47.2544 24.4109 46.6521 24.4109 46.0374C24.4109 46.0368 24.4109 46.0361 24.4109 46.0355L24.3882 43.0933L24.3843 42.5894H24.8882H26.8446H28.2784V41.5436V40.4978H26.8674H24.9564H24.4626L24.4565 40.004L24.4337 38.1704L24.3883 36.355L24.3753 35.8365L24.894 35.8426L26.441 35.8607L26.4459 35.8608C26.6694 35.8656 26.8682 35.8709 27.0462 35.8757C27.3886 35.8849 27.6538 35.8921 27.8695 35.8892C28.0302 35.887 28.1404 35.8792 28.2176 35.8669C28.2368 35.8639 28.2521 35.8608 28.2643 35.858C28.2671 35.8419 28.2701 35.8203 28.2728 35.792C28.2847 35.6661 28.2831 35.5124 28.2808 35.288C28.2797 35.1789 28.2784 35.0532 28.2784 34.9058C28.2784 34.7585 28.2797 34.6328 28.2808 34.5237C28.2831 34.2993 28.2847 34.1456 28.2728 34.0197C28.2701 33.9914 28.2671 33.9698 28.2643 33.9537C28.2522 33.9509 28.2368 33.9478 28.2176 33.9448C28.1404 33.9325 28.0302 33.9247 27.8695 33.9225C27.6538 33.9196 27.3886 33.9268 27.0462 33.936C26.8682 33.9407 26.6694 33.9461 26.4459 33.9509L26.441 33.951L24.894 33.9691L24.3747 33.9752L24.3883 33.456L24.4338 31.7316L24.4565 29.9892L24.4629 29.4957H24.9564H26.8674H28.2784V28.359V26.7223V26.2223H28.7784H30.1433C30.5215 26.2223 30.8696 26.2268 31.1257 26.2362C31.2522 26.2409 31.3647 26.247 31.4496 26.2554C31.4891 26.2592 31.5394 26.2651 31.5869 26.2755C31.6065 26.2798 31.6548 26.2907 31.7084 26.3151C31.7336 26.3266 31.7898 26.3541 31.8469 26.4072C31.8937 26.4507 31.9714 26.5412 31.9986 26.6771L32.0019 26.6894C32.0086 26.7139 32.0191 26.7513 32.0335 26.8018C32.0622 26.9023 32.1047 27.0492 32.1597 27.2383C32.2697 27.6162 32.4288 28.159 32.6251 28.8274C32.7411 29.2226 32.8701 29.6616 33.0095 30.1363C33.3416 31.2663 33.7328 32.598 34.1494 34.0196C34.7416 36.0407 35.2657 37.8942 35.6364 39.2549C35.8216 39.9349 35.9692 40.4942 36.0679 40.8906C36.117 41.0881 36.1552 41.2498 36.1799 41.3674C36.1921 41.425 36.2026 41.4798 36.2093 41.526C36.2114 41.5404 36.2138 41.5587 36.2157 41.5789C36.2577 41.6221 36.2884 41.6636 36.3086 41.6924C36.3635 41.7703 36.4107 41.8583 36.4502 41.9444C36.5279 42.1138 36.5954 42.3191 36.6372 42.5249L36.6988 42.7713H38.6745H40.6427L41.2429 40.7126L41.2428 40.7126L41.2457 40.7033C41.3372 40.4109 41.4273 40.1201 41.5126 39.8445C41.6166 39.5088 41.7136 39.1956 41.7978 38.929C41.8748 38.685 41.9432 38.4731 41.9987 38.3117C42.0263 38.2313 42.0522 38.1593 42.0753 38.1002C42.0897 38.0634 42.1121 38.0072 42.1406 37.9539C42.1834 37.8539 42.2589 37.593 42.3002 37.3806C42.3554 37.0609 42.6662 35.9374 42.9719 34.8887C43.1289 34.3502 43.2891 33.816 43.422 33.3923C43.4883 33.1807 43.5486 32.9944 43.5986 32.848C43.6427 32.7189 43.689 32.5897 43.7288 32.5078C43.7771 32.4033 43.8494 32.1684 43.8651 32.0306L43.8682 32.0031L43.8744 31.9762C43.9241 31.7575 44.2703 30.5046 44.6559 29.1994C44.8489 28.546 45.0245 27.939 45.1517 27.487C45.1755 27.4027 45.1974 27.3241 45.2174 27.2518C44.9083 27.2341 44.4945 27.2223 44.0434 27.2223H42.6268L42.3431 28.2492C42.3429 28.2503 42.3426 28.2513 42.3423 28.2524C42.2389 28.6471 42.1298 29.0375 42.0374 29.349C41.951 29.6402 41.8656 29.9111 41.8116 30.0262C41.7978 30.0556 41.7845 30.0859 41.7727 30.1151C41.7609 30.1442 41.7518 30.1693 41.7455 30.1894C41.746 30.1981 41.7461 30.2045 41.7462 30.208L41.7462 30.2095C41.747 30.2391 41.7453 30.2642 41.744 30.2795C41.7412 30.3111 41.7365 30.3423 41.7323 30.3671C41.7235 30.4189 41.7103 30.4832 41.6946 30.5539C41.6628 30.6972 41.6151 30.8931 41.5565 31.1252C41.4389 31.5907 41.2731 32.2166 41.0909 32.8905L41.0909 32.8905L41.0891 32.8969C40.453 35.1307 40.3412 35.5421 40.0941 36.5656C40.0804 36.626 40.0526 36.7555 40.0138 36.9366C39.9887 37.0537 39.9589 37.1925 39.9254 37.3481C39.8402 37.743 39.7321 38.2385 39.6182 38.7394C39.5152 39.2424 39.4123 39.7043 39.3318 40.0463C39.2915 40.2177 39.2565 40.3607 39.2297 40.4646C39.2164 40.5161 39.2044 40.5609 39.1943 40.5959C39.1894 40.6129 39.1837 40.6317 39.1778 40.6496C39.1749 40.6583 39.1704 40.6711 39.1648 40.6853L39.1645 40.6862C39.1613 40.6943 39.1467 40.7313 39.1211 40.7722L39.0345 40.9107L38.8828 40.9713C38.5705 41.0962 38.3524 40.876 38.3263 40.8488C38.273 40.7931 38.2428 40.7365 38.2317 40.7153C38.2044 40.6629 38.184 40.6067 38.1701 40.5657C38.1396 40.4759 38.1065 40.3562 38.0728 40.2215C38.0044 39.9479 37.9228 39.5697 37.8421 39.1457L37.842 39.1457L37.8408 39.139C37.7314 38.5179 37.0502 35.7746 36.3447 33.037C35.669 30.4149 34.9916 27.8786 34.7933 27.2724C34.7931 27.2724 34.793 27.2723 34.7929 27.2723C34.6766 27.2423 34.4564 27.2223 34.0335 27.2223H32.9416H32.4539L32.4417 26.7348L32.3962 24.9162L32.3962 24.9162L32.3961 24.91L32.3734 23.1096L32.367 22.6033H32.8733H35.626C36.9215 22.6033 37.6038 22.5934 38.1014 22.532C38.5711 22.4741 38.876 22.3705 39.4177 22.1496C39.7374 22.0174 40.0189 21.8872 40.2131 21.7865C40.2655 21.7594 40.3082 21.736 40.3419 21.7168C40.3659 21.6624 40.3963 21.6008 40.4296 21.5372C40.5017 21.3994 40.5992 21.2291 40.7075 21.056L40.7075 21.0559L40.7117 21.0495C40.7968 20.9178 40.8983 20.6936 40.9532 19.3503C41.0067 18.0399 41.0182 15.7697 41.0182 11.6645C41.0182 6.63033 41.0169 4.18594 40.8461 2.88208C40.7617 2.23804 40.6437 1.95139 40.5193 1.78101C40.3916 1.60604 40.2234 1.49877 39.8532 1.27441C39.4842 1.06213 38.8581 0.79446 38.4637 0.675335C38.4565 0.674625 38.4285 0.670944 38.3683 0.666245C38.2873 0.659912 38.1748 0.653454 38.0307 0.647026C37.7431 0.634201 37.3435 0.622089 36.8458 0.610767C35.851 0.588146 34.475 0.56892 32.8425 0.553154C29.5782 0.521633 25.295 0.504021 21.0004 0.50061C16.7059 0.4972 12.4013 0.507999 9.0941 0.533276C7.44029 0.545914 6.03731 0.562164 5.01021 0.582035C4.49637 0.591972 4.07872 0.602783 3.77162 0.614407C3.61786 0.620228 3.4943 0.62616 3.40141 0.632122C3.35494 0.635105 3.31822 0.637966 3.29042 0.64061C3.26925 0.642624 3.25736 0.644142 3.2524 0.644821C2.1896 0.863262 1.40699 1.33565 0.929956 1.98957L0.5 2.60225V11.5372V20.4734L0.977653 21.1607C0.977936 21.1611 0.978219 21.1615 0.978502 21.1619C1.32979 21.6607 1.70328 21.9613 2.33666 22.1986L2.34557 22.202L2.35434 22.2056C2.78762 22.3871 3.05318 22.4771 3.74986 22.5273C4.48363 22.5802 5.65516 22.5851 7.89414 22.5851H12.6261H13.1261V23.0851V34.8695V46.3952L15.054 47.9364L17.0101 49.5H20.8842ZM28.2545 35.899C28.2545 35.8991 28.255 35.8981 28.2558 35.8956C28.2549 35.8977 28.2545 35.8989 28.2545 35.899ZM28.2545 33.9127C28.2545 33.9128 28.2549 33.914 28.2558 33.9161C28.255 33.9136 28.2545 33.9126 28.2545 33.9127ZM40.4214 21.6674C40.4212 21.6676 40.421 21.6677 40.4207 21.668L40.4214 21.6674ZM29.5059 13.4467V13.9489L29.0037 13.9467L20.7683 13.9103L20.7672 13.9103L12.509 13.8557L12.0229 13.8525L12.0124 13.3665L11.9442 10.184L11.9441 10.1798C11.9327 9.3033 11.9327 8.48037 11.9413 7.85902C11.9456 7.54882 11.9521 7.28585 11.9605 7.0904C11.9648 6.99323 11.9697 6.90831 11.9755 6.84076C11.9783 6.80729 11.9819 6.77326 11.9864 6.74174L11.9864 6.7416C11.9894 6.72077 11.9975 6.66363 12.0188 6.60424L12.0289 6.57579L12.0424 6.54878C12.1157 6.40232 12.2341 6.32948 12.2909 6.29906C12.3566 6.26392 12.423 6.24221 12.476 6.22778C12.5832 6.19853 12.715 6.17812 12.8624 6.16187C13.1622 6.12882 13.6094 6.10456 14.2411 6.08633C15.5092 6.04971 17.5752 6.03611 20.816 6.03611H29.0059H29.5059V6.53611V9.99139V13.4467Z" fill="#01BF71" stroke="black"/>
<path d="M54.1443 35.497H56.2605V34.724C56.2605 34.5775 56.2641 34.4438 56.2671 34.3316C56.268 34.2986 56.2688 34.2675 56.2695 34.2384C56.2724 34.1136 56.2721 34.0333 56.2673 33.9756C56.1727 33.9532 55.9807 33.9333 55.5948 33.9299C55.3161 33.9275 54.974 33.9326 54.5438 33.9391C54.2805 33.943 53.9841 33.9475 53.649 33.951L53.6481 33.951L51.5324 33.9691L51.0281 33.9735V33.4692V31.3596V29.2501V28.746L51.5321 28.7501L53.7616 28.7683L53.7626 28.7683C54.1104 28.7718 54.4183 28.7762 54.692 28.7802C55.1389 28.7866 55.4946 28.7917 55.7841 28.7893C56.1932 28.7859 56.3962 28.7652 56.4965 28.741C56.5009 28.6842 56.5009 28.6053 56.4977 28.4821C56.497 28.4549 56.4962 28.4259 56.4953 28.3952C56.492 28.2815 56.488 28.1453 56.488 27.9953V27.2223H52.4381H48.3881V34.9968V42.7713H52.4381H56.488V41.9983V41.2333L54.3161 41.1888L54.316 41.1888L51.6317 41.1342L51.156 41.1246L51.142 40.649L51.0738 38.3213L51.0738 38.3212L51.0055 36.0118L50.9903 35.497H51.5053H54.1443Z" fill="#01BF71" stroke="black"/>
</svg>
