<svg width="1094" height="562" viewBox="0 0 1094 562" fill="none" xmlns="http://www.w3.org/2000/svg">
<rect width="1094" height="562" fill="#E5E5E5"/>
<g clip-path="url(#clip0)">
<path d="M1094 100.142V218.431L1091.94 215.452L944.123 1.99964L942.733 0H1024.65L1026.03 1.99964L1091.94 97.1627L1094 100.142Z" fill="#01BF71"/>
<path d="M577.029 2.91757e-05C501.238 -0.0940243 426.175 14.3488 356.153 42.4986C286.131 70.6484 222.531 111.95 169.007 164.031C159.828 172.939 151.003 182.094 142.532 191.496C125.132 210.747 109.123 231.142 94.6194 252.535C90.437 258.704 86.385 264.953 82.4636 271.282C68.3818 293.989 55.9785 317.637 45.3473 342.049C44.1832 344.709 43.0466 347.378 41.9374 350.058C35.7668 364.825 30.2761 379.786 25.4653 394.94C13.1095 433.799 5.19839 473.859 1.87481 514.399C0.628331 529.506 0.0033728 544.72 -6.10352e-05 560.04V561.04H1094V2.91757e-05H577.029ZM1091.94 559.041H2.0603C2.08091 545.443 2.60285 531.969 3.62613 518.618C6.71844 477.724 14.4784 437.291 26.7633 398.059C31.5638 382.722 37.0168 367.675 43.1221 352.917C54.419 325.582 67.9395 299.164 83.5556 273.911C87.4598 267.562 91.5083 261.297 95.7011 255.115C110.173 233.65 126.15 213.179 143.521 193.846C249.008 76.3664 404.242 1.99967 577.029 1.99967H1091.94V559.041Z" fill="#3F3D56"/>
<path d="M518.83 561.555C540.53 561.555 558.121 560.618 558.121 559.462C558.121 558.306 540.53 557.37 518.83 557.37C497.13 557.37 479.539 558.306 479.539 559.462C479.539 560.618 497.13 561.555 518.83 561.555Z" fill="#3F3D56"/>
<path d="M144.231 560.113C156.544 560.113 166.525 550.426 166.525 538.476C166.525 526.526 156.544 516.838 144.231 516.838C131.919 516.838 121.938 526.526 121.938 538.476C121.938 550.426 131.919 560.113 144.231 560.113Z" fill="#F2F2F2"/>
<path d="M148.321 503.47C140.329 503.481 132.667 506.568 127.016 512.054C121.365 517.54 118.187 524.978 118.179 532.735C118.179 532.895 118.179 533.055 118.189 533.215C118.287 538.616 119.921 543.886 122.909 548.443C125.898 553 130.125 556.667 135.125 559.041C136.895 559.887 138.748 560.557 140.657 561.04C145.685 562.32 150.968 562.32 155.996 561.04C157.905 560.557 159.758 559.887 161.528 559.041C167.658 556.142 172.595 551.312 175.532 545.34C178.47 539.368 179.235 532.605 177.702 526.156C176.17 519.707 172.43 513.953 167.094 509.833C161.758 505.713 155.14 503.47 148.321 503.47ZM155.697 559.041C153.294 559.682 150.813 560.004 148.321 560C147.827 560 147.332 559.99 146.848 559.96H146.838C144.848 559.865 142.875 559.556 140.956 559.041C136.897 557.961 133.138 556.014 129.956 553.341C126.774 550.668 124.25 547.337 122.567 543.593V543.583C120.289 538.484 119.671 532.832 120.797 527.382C121.922 521.933 124.737 516.948 128.864 513.096C132.991 509.243 138.233 506.707 143.887 505.827C149.541 504.948 155.337 505.767 160.498 508.175C165.659 510.583 169.938 514.464 172.762 519.299C175.585 524.134 176.819 529.691 176.296 535.226C175.774 540.76 173.521 546.007 169.839 550.264C166.157 554.52 161.223 557.583 155.697 559.041V559.041Z" fill="#3F3D56"/>
<path d="M401.749 391.454H234.864V420.215H401.749V391.454Z" fill="#F2F2F2"/>
<path d="M921.975 122.502H755.091V151.263H921.975V122.502Z" fill="#F2F2F2"/>
<path d="M921.975 185.491H755.091V214.252H921.975V185.491Z" fill="#F2F2F2"/>
<path d="M921.975 246.48H755.091V275.241H921.975V246.48Z" fill="#F2F2F2"/>
<path d="M921.975 307.469H755.091V336.23H921.975V307.469Z" fill="#F2F2F2"/>
<path d="M921.975 370.458H755.091V399.219H921.975V370.458Z" fill="#F2F2F2"/>
<path d="M921.975 433.447H755.091V462.208H921.975V433.447Z" fill="#F2F2F2"/>
<path d="M233.834 381.222V421.215H456.347V381.222H233.834ZM454.286 419.215H235.894V383.222H454.286V419.215Z" fill="#3F3D56"/>
<path d="M604.688 166.26C610.378 166.26 614.99 161.784 614.99 156.262C614.99 150.74 610.378 146.264 604.688 146.264C598.999 146.264 594.387 150.74 594.387 156.262C594.387 161.784 598.999 166.26 604.688 166.26Z" fill="#3F3D56"/>
<path d="M604.688 228.249C610.378 228.249 614.99 223.773 614.99 218.251C614.99 212.729 610.378 208.253 604.688 208.253C598.999 208.253 594.387 212.729 594.387 218.251C594.387 223.773 598.999 228.249 604.688 228.249Z" fill="#3F3D56"/>
<path d="M604.688 290.238C610.378 290.238 614.99 285.762 614.99 280.24C614.99 274.718 610.378 270.242 604.688 270.242C598.999 270.242 594.387 274.718 594.387 280.24C594.387 285.762 598.999 290.238 604.688 290.238Z" fill="#3F3D56"/>
<path d="M604.688 352.227C610.378 352.227 614.99 347.751 614.99 342.229C614.99 336.707 610.378 332.231 604.688 332.231C598.999 332.231 594.387 336.707 594.387 342.229C594.387 347.751 598.999 352.227 604.688 352.227Z" fill="#3F3D56"/>
<path d="M604.688 414.216C610.378 414.216 614.99 409.74 614.99 404.218C614.99 398.696 610.378 394.22 604.688 394.22C598.999 394.22 594.387 398.696 594.387 404.218C594.387 409.74 598.999 414.216 604.688 414.216Z" fill="#3F3D56"/>
<path d="M604.688 476.205C610.378 476.205 614.99 471.729 614.99 466.207C614.99 460.685 610.378 456.209 604.688 456.209C598.999 456.209 594.387 460.685 594.387 466.207C594.387 471.729 598.999 476.205 604.688 476.205Z" fill="#3F3D56"/>
<path d="M979.664 155.262H697.402V157.262H979.664V155.262Z" fill="#3F3D56"/>
<path d="M979.664 217.251H697.402V219.251H979.664V217.251Z" fill="#3F3D56"/>
<path d="M979.664 279.24H697.402V281.24H979.664V279.24Z" fill="#3F3D56"/>
<path d="M979.664 341.229H697.402V343.229H979.664V341.229Z" fill="#3F3D56"/>
<path d="M979.664 403.218H697.402V405.218H979.664V403.218Z" fill="#3F3D56"/>
<path d="M979.664 465.207H697.402V467.207H979.664V465.207Z" fill="#3F3D56"/>
<path d="M1030.51 523.123L1003.43 501.561L1025.65 475.28L1052.73 496.841L1030.51 523.123ZM1006.33 501.284L1030.23 520.309L1049.83 497.119L1025.93 478.094L1006.33 501.284Z" fill="#3F3D56"/>
<path d="M638.187 53.0588L612.701 32.7661L591.793 57.5016L617.279 77.7942L638.187 53.0588Z" fill="#01BF71"/>
<path d="M482.1 218.251C482.147 246.453 472.907 273.931 455.729 296.677C453.771 299.277 451.721 301.816 449.568 304.266C443.487 311.222 436.687 317.554 429.274 323.163C428.533 323.722 427.781 324.282 427.018 324.832C424.237 326.852 421.377 328.768 418.437 330.581C417.541 331.131 416.645 331.671 415.738 332.191C413.688 333.401 411.6 334.554 409.475 335.65C408.434 336.19 407.384 336.72 406.333 337.23C384.741 347.686 360.687 352.426 336.603 350.97C312.519 349.515 289.258 341.916 269.168 328.941C268.097 328.262 267.046 327.562 266.006 326.842C264.049 325.502 262.122 324.102 260.247 322.663C258.516 321.343 256.827 319.973 255.168 318.573C246.437 311.204 238.701 302.792 232.145 293.538C230.867 291.728 229.631 289.888 228.436 288.019C217.324 270.516 210.544 250.752 208.63 230.278C206.715 209.803 209.717 189.177 217.401 170.019C225.084 150.861 237.24 133.693 252.913 119.863C268.585 106.033 287.348 95.918 307.728 90.3129C328.107 84.7077 349.548 83.7648 370.367 87.5582C391.185 91.3516 410.813 99.778 427.711 112.176C444.608 124.573 458.313 140.604 467.75 159.009C477.188 177.415 482.1 197.693 482.1 218.251Z" fill="#3F3D56"/>
<path d="M339.931 211.69C360.546 211.69 377.257 195.47 377.257 175.462C377.257 155.454 360.546 139.235 339.931 139.235C319.316 139.235 302.604 155.454 302.604 175.462C302.604 195.47 319.316 211.69 339.931 211.69Z" fill="#A0616A"/>
<path d="M314.268 192.821C314.268 192.821 326.711 219.992 309.603 230.559C292.495 241.125 337.598 284.9 337.598 284.9L387.367 233.578C387.367 233.578 360.927 216.973 365.593 189.803L314.268 192.821Z" fill="#A0616A"/>
<path d="M429.274 323.163C428.533 323.722 427.781 324.282 427.018 324.832C424.237 326.852 421.377 328.768 418.437 330.581C417.541 331.131 416.645 331.671 415.738 332.191L415.357 330.181L418.942 328.372L429.274 323.163Z" fill="#A0616A"/>
<path d="M415.738 332.191C416.645 331.671 417.541 331.131 418.437 330.581L418.468 330.181L418.942 328.372L438.69 253.205L378.828 226.47L343.823 247.166L312.465 228.399C312.465 228.399 294.046 229.049 289.38 233.578C285.723 237.128 267.788 245.296 260.165 248.676C258.043 249.616 256.724 250.185 256.724 250.185C256.724 250.185 257.898 284.439 260.247 322.663C262.122 324.102 264.048 325.502 266.006 326.842C267.046 327.562 268.097 328.262 269.168 328.941C289.257 341.916 312.519 349.515 336.603 350.97C360.687 352.426 384.741 347.686 406.333 337.23L415.738 332.191Z" fill="#01BF71"/>
<path d="M269.168 248.676V328.941C268.097 328.262 267.046 327.562 266.006 326.842C264.048 325.502 262.122 324.102 260.247 322.663C258.516 321.343 256.827 319.973 255.168 318.573C246.437 311.204 238.701 302.792 232.145 293.538C230.867 291.728 229.631 289.888 228.436 288.019C229.446 284.799 230.579 281.243 231.836 277.351C239.613 253.205 256.724 248.676 256.724 248.676H269.168Z" fill="#01BF71"/>
<path d="M415.738 332.191C416.645 331.671 417.541 331.131 418.437 330.581C421.373 328.771 424.233 326.855 427.018 324.832C427.781 324.282 428.533 323.722 429.274 323.163C436.687 317.554 443.487 311.222 449.568 304.266C451.721 301.816 453.771 299.277 455.729 296.677C449.393 277.461 438.69 253.205 438.69 253.205L416.913 251.695C416.913 251.695 408.074 320.363 406.333 337.23L415.738 332.191Z" fill="#01BF71"/>
<path d="M317.045 133.531C315.177 135.073 313.228 136.52 311.206 137.866C308.656 139.92 306.3 142.191 304.167 144.652L301.76 147.268C299.712 149.493 297.539 152.033 297.625 155.016C297.658 156.123 298.008 157.197 298.145 158.296C298.69 162.657 295.944 167.449 298.204 171.255C298.858 172.355 299.869 173.215 300.589 174.275C301.506 175.634 301.912 177.258 301.739 178.873C304.168 178.97 306.161 176.857 306.922 174.616C307.684 172.375 307.581 169.955 307.952 167.623C308.323 165.291 309.365 162.821 311.549 161.783C316.207 159.568 321.556 165.327 326.528 163.892C330 162.89 331.831 158.713 335.38 158.013C337.92 157.511 340.366 158.976 342.727 160.015C345.088 161.053 348.271 161.534 349.941 159.609C351.047 158.335 351.165 156.293 352.631 155.427C354.388 154.389 356.589 155.834 357.919 157.357C359.249 158.879 360.719 160.741 362.775 160.686C365.503 160.612 367.592 157.086 370.181 157.923C373.104 158.867 371.76 163.406 373.533 165.85C375.032 167.916 378.171 167.795 380.751 167.453C381.186 167.496 381.625 167.431 382.027 167.264C382.43 167.097 382.782 166.834 383.05 166.5C383.319 166.165 383.496 165.769 383.565 165.35C383.633 164.931 383.591 164.502 383.442 164.103L382.365 150.233C382.36 149.277 382.145 148.333 381.733 147.465C380.983 146.146 379.429 145.477 378.372 144.373C376.151 142.052 376.258 137.982 373.495 136.294C372.061 135.417 370.185 135.444 368.761 134.552C366.934 133.408 366.346 131.117 365.066 129.411C363.237 126.973 360.04 125.842 356.948 125.532C353.857 125.222 350.738 125.596 347.631 125.498C341.316 125.298 335.001 123.573 328.656 124.583C323.119 125.464 320.795 130.023 317.045 133.531Z" fill="#2F2E41"/>
<path d="M1052.83 126.674C1055.21 126.674 1057.14 124.8 1057.14 122.488C1057.14 120.177 1055.21 118.303 1052.83 118.303C1050.45 118.303 1048.52 120.177 1048.52 122.488C1048.52 124.8 1050.45 126.674 1052.83 126.674Z" fill="#3F3D56"/>
<path d="M1022.96 75.6828C1025.34 75.6828 1027.27 73.8089 1027.27 71.4973C1027.27 69.1857 1025.34 67.3118 1022.96 67.3118C1020.58 67.3118 1018.64 69.1857 1018.64 71.4973C1018.64 73.8089 1020.58 75.6828 1022.96 75.6828Z" fill="#3F3D56"/>
<path d="M1010.6 20.6926C1012.98 20.6926 1014.91 18.8187 1014.91 16.5071C1014.91 14.1955 1012.98 12.3216 1010.6 12.3216C1008.21 12.3216 1006.28 14.1955 1006.28 16.5071C1006.28 18.8187 1008.21 20.6926 1010.6 20.6926Z" fill="#3F3D56"/>
</g>
<defs>
<clipPath id="clip0">
<rect width="1094" height="562" fill="white"/>
</clipPath>
</defs>
</svg>
