<svg width="820" height="726" viewBox="0 0 820 726" fill="none" xmlns="http://www.w3.org/2000/svg">
<rect width="820" height="726" fill="#E5E5E5"/>
<g clip-path="url(#clip0)">
<path d="M199.416 597.799C176.851 632.403 183.034 676.415 183.034 676.415C183.034 676.415 225.802 664.323 248.367 629.719C270.932 595.114 264.749 551.102 264.749 551.102C264.749 551.102 221.981 563.194 199.416 597.799Z" fill="#3F3D56"/>
<path d="M182.914 676.013C182.914 676.013 182.365 675.925 181.354 675.721C180.547 675.557 179.437 675.323 178.081 675.002C165.961 672.144 133.738 662.485 112.671 637.087C86.3039 605.285 87.4142 560.854 87.4142 560.854C87.4142 560.854 127.731 567.405 154.297 595.964C155.448 597.191 156.568 598.463 157.657 599.78C180.6 627.451 182.739 664.682 182.908 673.886C182.932 675.265 182.914 676.013 182.914 676.013Z" fill="#01BF71"/>
<path d="M166.652 597.799C189.217 632.403 183.034 676.415 183.034 676.415C183.034 676.415 140.266 664.323 117.701 629.719C95.1365 595.114 101.319 551.102 101.319 551.102C101.319 551.102 144.087 563.194 166.652 597.799Z" stroke="#3F3D56" stroke-width="2" stroke-miterlimit="10"/>
<path opacity="0.1" d="M182.908 673.886C182.312 674.605 181.786 675.218 181.354 675.721C180.395 676.814 179.852 677.386 179.852 677.386C179.852 677.386 179.192 676.557 178.081 675.002C171.986 666.505 152.38 636.293 153.894 601.393C153.975 599.564 154.11 597.754 154.297 595.964C155.448 597.191 156.568 598.463 157.657 599.78C180.6 627.451 182.739 664.682 182.908 673.886Z" fill="black"/>
<path d="M216.366 603.917C214.583 645.19 183.945 677.387 183.945 677.387C183.945 677.387 156.199 642.667 157.982 601.394C159.766 560.121 190.404 527.924 190.404 527.924C190.404 527.924 218.15 562.644 216.366 603.917Z" fill="#01BF71"/>
<path d="M183.945 676.218L190.681 529.608" stroke="#3F3D56" stroke-width="2" stroke-miterlimit="10"/>
<path d="M410 725.174C636.437 725.174 820 710.189 820 691.704C820 673.219 636.437 658.235 410 658.235C183.563 658.235 0 673.219 0 691.704C0 710.189 183.563 725.174 410 725.174Z" fill="#3F3D56"/>
<path d="M475.161 290.141C464.94 293.593 455.679 301.667 453.586 312.251C452.616 317.157 453.211 322.257 452.394 327.191C450.5 338.634 441.518 347.374 433.233 355.491C424.948 363.608 416.393 373.04 415.788 384.623C415.126 397.307 424.325 409.189 422.733 421.79C420.884 436.43 405.421 445.916 401.599 460.168C399.047 469.685 402.174 479.936 407.32 488.339C417.126 504.351 433.886 515.222 451.735 521.05C469.584 526.877 488.593 528.103 507.368 528.3C530.229 528.539 555.05 526.577 572.227 511.489C582.038 502.793 588.2 490.71 589.476 477.663C591.108 460.185 583.813 442.127 588.845 425.31C592.012 414.727 599.953 405.061 598.767 394.078C597.609 383.339 588.229 375.727 581.795 367.052C575.788 358.952 572.142 349.386 568.569 339.955L556.345 307.688C553.942 301.345 551.303 294.673 545.947 290.51C535.921 282.716 519.8 284.247 508.077 285.855C497.201 287.346 485.62 286.609 475.161 290.141Z" fill="#2F2E41"/>
<path d="M478.99 384.137C478.99 384.137 484.409 401.749 443.766 422.07C403.123 442.392 447.83 464.068 447.83 464.068L495.247 474.906C495.247 474.906 544.019 468.132 549.438 460.004C554.857 451.875 564.34 424.78 561.631 420.715C559.604 417.822 557.338 415.103 554.857 412.587C554.857 412.587 522.342 407.168 523.697 392.265C525.052 377.363 478.99 384.137 478.99 384.137Z" fill="#FFB9B9"/>
<path opacity="0.1" d="M478.99 384.137C478.99 384.137 484.409 401.749 443.766 422.07C403.123 442.392 447.83 464.068 447.83 464.068L495.247 474.906C495.247 474.906 544.019 468.132 549.438 460.004C554.857 451.875 564.34 424.78 561.631 420.715C559.604 417.822 557.338 415.103 554.857 412.587C554.857 412.587 522.342 407.168 523.697 392.265C525.052 377.363 478.99 384.137 478.99 384.137Z" fill="black"/>
<path d="M505.408 411.909C529.351 411.909 548.76 392.5 548.76 368.557C548.76 344.614 529.351 325.204 505.408 325.204C481.465 325.204 462.055 344.614 462.055 368.557C462.055 392.5 481.465 411.909 505.408 411.909Z" fill="#FFB9B9"/>
<path d="M500.666 460.004C500.666 460.004 448.456 456.186 447.465 420.161C447.465 420.161 428.863 418.006 423.444 423.425C418.025 428.844 400.413 432.908 400.413 446.456C400.413 460.004 430.218 500.647 430.218 500.647C430.218 500.647 446.475 554.838 439.701 564.321C432.928 573.805 431.573 598.19 431.573 598.19C431.573 598.19 499.311 592.771 510.149 598.19C520.988 603.609 564.34 603.609 567.05 598.19C569.759 592.771 564.34 525.033 564.34 525.033C564.34 525.033 576.533 508.775 573.824 489.809L606.338 451.875C606.338 451.875 594.145 415.296 575.178 415.296C575.178 415.296 549.438 408.522 548.76 411.909C548.083 415.296 561.631 453.23 500.666 460.004Z" fill="#01BF71"/>
<path d="M378.737 579.224C378.737 579.224 390.93 598.19 422.089 602.255C453.249 606.319 458.668 595.481 455.959 592.771C453.249 590.062 420.735 577.869 420.735 577.869L401.768 562.966L378.737 579.224Z" fill="#FFB9B9"/>
<path d="M600.919 562.966L565.695 583.288C565.695 583.288 519.633 580.578 537.245 594.126C554.857 607.674 587.371 602.255 587.371 602.255L618.531 587.352L600.919 562.966Z" fill="#FFB9B9"/>
<path d="M424.799 598.19C424.799 598.19 392.284 678.122 431.573 690.315C470.861 702.508 579.243 699.798 603.629 683.541C628.015 667.284 634.788 645.607 630.724 638.834C626.66 632.06 599.564 613.093 580.598 611.738C561.631 610.383 424.799 598.19 424.799 598.19Z" fill="#2F2E41"/>
<path opacity="0.05" d="M424.799 598.19C424.799 598.19 392.284 678.122 431.573 690.315C470.861 702.508 579.243 699.798 603.629 683.541C628.015 667.284 634.788 645.607 630.724 638.834C626.66 632.06 599.564 613.093 580.598 611.738C561.631 610.383 424.799 598.19 424.799 598.19Z" fill="black"/>
<path d="M578.277 603.156C578.277 603.156 693.044 561.612 691.689 611.738C690.334 661.865 618.531 675.412 618.531 675.412L596.855 678.122L477.635 682.186C477.635 682.186 481.699 660.51 472.216 657.8C472.216 657.8 503.376 649.672 504.73 648.317C506.085 646.962 583.307 619.867 588.726 618.512C594.145 617.157 610.403 606.319 622.596 607.674C622.596 607.674 636.143 596.836 651.046 599.545L609.048 602.255L578.277 603.156Z" fill="#2F2E41"/>
<path opacity="0.1" d="M578.277 603.156C578.277 603.156 693.044 561.612 691.689 611.738C690.334 661.865 618.531 675.412 618.531 675.412L596.855 678.122L477.635 682.186C477.635 682.186 481.699 660.51 472.216 657.8C472.216 657.8 503.376 649.672 504.73 648.317C506.085 646.962 583.307 619.867 588.726 618.512C594.145 617.157 610.403 606.319 622.596 607.674C622.596 607.674 636.143 596.836 651.046 599.545L609.048 602.255L578.277 603.156Z" fill="black"/>
<path d="M558 609.885L572.469 642.898L660.529 611.738L667.303 594.126L644.272 590.062L597.97 598.19L577.888 603.61L558 609.885Z" fill="#2F2E41"/>
<path opacity="0.1" d="M558 609.885L572.469 642.898L660.529 611.738L667.303 594.126L644.272 590.062L597.97 598.19L577.888 603.61L558 609.885Z" fill="black"/>
<path d="M370.608 649.672C370.608 649.672 396.349 682.186 426.154 690.315C455.959 698.444 472.216 687.605 472.216 687.605L462.732 649.672L458.668 625.286L441.056 613.093L405.832 596.836L363.834 583.288C363.834 583.288 346.222 580.578 346.222 583.288C346.222 585.998 362.479 626.641 362.479 626.641L370.608 649.672Z" fill="#2F2E41"/>
<path d="M401.768 667.284C401.768 667.284 407.187 706.572 413.961 709.282C420.735 711.991 441.056 706.572 446.475 703.863C451.894 701.153 470.314 688.652 470.314 688.652C470.314 688.652 405.832 664.574 401.768 667.284Z" fill="#F2F2F2"/>
<path d="M525.052 671.348L550.793 675.412L548.083 706.572L512.18 697.851L525.052 671.348Z" fill="#FFB9B9"/>
<path d="M541.18 680.02C541.18 680.02 529.116 694.379 541.309 702.508L549.438 709.282C549.438 709.282 576.533 714.701 579.243 717.41C581.952 720.12 592.791 713.346 592.791 713.346C592.791 713.346 594.145 672.703 592.791 669.993C591.436 667.284 575.179 664.574 573.824 667.284C572.469 669.993 556.212 674.058 546.728 671.348L541.18 680.02Z" fill="#F2F2F2"/>
<path d="M432.927 607.674C432.927 607.674 338.093 552.128 323.191 572.45C308.288 592.771 292.031 621.221 335.384 642.898C378.737 664.574 514.214 709.282 514.214 709.282C514.214 709.282 534.535 678.122 534.535 669.993C534.535 669.993 462.732 637.479 450.539 634.769C438.347 632.06 389.575 600.9 382.801 598.19C376.027 595.481 366.544 587.352 366.544 587.352L432.927 607.674Z" fill="#2F2E41"/>
<path d="M405.832 439.682L400.413 443.747C400.413 443.747 388.22 474.906 386.865 492.518C385.51 510.13 369.253 564.321 370.608 571.095C371.963 577.869 373.318 583.288 381.446 590.062C381.446 590.062 392.284 565.676 411.251 569.74L434.282 485.744L405.832 439.682Z" fill="#01BF71"/>
<path d="M595.5 439.682L606.338 451.875C606.338 451.875 613.112 468.132 613.112 472.197C613.112 476.261 626.66 535.871 628.015 538.581C629.369 541.29 634.788 575.159 628.015 583.288C621.241 591.417 609.048 596.836 609.048 596.836C609.048 596.836 617.176 568.385 591.436 567.031L594.145 556.192L569.759 474.906L595.5 439.682Z" fill="#01BF71"/>
<path d="M408.542 532.956V604.317C408.542 608.823 410.315 613.149 413.477 616.359C416.64 619.568 420.938 621.405 425.444 621.472L574.682 623.683C579.161 623.749 583.489 622.061 586.74 618.978C589.991 615.896 591.908 611.664 592.08 607.188L594.825 535.818C594.913 533.532 594.543 531.252 593.736 529.111C592.93 526.97 591.703 525.013 590.129 523.353C588.555 521.693 586.665 520.365 584.57 519.446C582.474 518.528 580.217 518.037 577.93 518.004L425.947 515.802C423.673 515.769 421.415 516.188 419.305 517.035C417.195 517.883 415.274 519.141 413.655 520.737C412.035 522.333 410.749 524.236 409.871 526.333C408.994 528.431 408.542 530.682 408.542 532.956Z" fill="#3F3D56"/>
<path d="M507.95 367.167C533.723 367.167 554.615 355.917 554.615 342.039C554.615 328.162 533.723 316.912 507.95 316.912C482.178 316.912 461.285 328.162 461.285 342.039C461.285 355.917 482.178 367.167 507.95 367.167Z" fill="#2F2E41"/>
<path d="M499.989 581.256C505.974 581.256 510.827 576.403 510.827 570.418C510.827 564.432 505.974 559.579 499.989 559.579C494.003 559.579 489.151 564.432 489.151 570.418C489.151 576.403 494.003 581.256 499.989 581.256Z" fill="#F2F2F2"/>
<path d="M794.99 568.221V691.988C794.99 694.115 793.845 694.418 791.986 695.45C785.712 698.93 770.246 705.13 751.677 695.317C749.771 694.309 748.598 693.969 748.598 691.813V569.014C748.598 569.014 772.19 578.531 794.99 568.221Z" fill="#2F2E41"/>
<path d="M771.794 573.065C784.604 573.065 794.99 570.859 794.99 568.138C794.99 565.418 784.604 563.212 771.794 563.212C758.983 563.212 748.598 565.418 748.598 568.138C748.598 570.859 758.983 573.065 771.794 573.065Z" fill="#3F3D56" stroke="#01BF71" stroke-miterlimit="10"/>
<g opacity="0.8">
<path opacity="0.8" d="M792.877 620.136C793.164 620.136 793.397 619.903 793.397 619.616C793.397 619.329 793.164 619.096 792.877 619.096C792.59 619.096 792.357 619.329 792.357 619.616C792.357 619.903 792.59 620.136 792.877 620.136Z" fill="black"/>
<path opacity="0.8" d="M790.235 620.875C790.522 620.875 790.755 620.642 790.755 620.355C790.755 620.067 790.522 619.834 790.235 619.834C789.948 619.834 789.715 620.067 789.715 620.355C789.715 620.642 789.948 620.875 790.235 620.875Z" fill="black"/>
<path opacity="0.8" d="M786.971 621.916C787.258 621.916 787.491 621.683 787.491 621.395C787.491 621.108 787.258 620.875 786.971 620.875C786.683 620.875 786.45 621.108 786.45 621.395C786.45 621.683 786.683 621.916 786.971 621.916Z" fill="black"/>
<path opacity="0.8" d="M781.118 623.177C781.406 623.177 781.639 622.944 781.639 622.656C781.639 622.369 781.406 622.136 781.118 622.136C780.831 622.136 780.598 622.369 780.598 622.656C780.598 622.944 780.831 623.177 781.118 623.177Z" fill="black"/>
<path opacity="0.8" d="M774.948 623.924C775.235 623.924 775.468 623.691 775.468 623.403C775.468 623.116 775.235 622.883 774.948 622.883C774.66 622.883 774.427 623.116 774.427 623.403C774.427 623.691 774.66 623.924 774.948 623.924Z" fill="black"/>
<path opacity="0.8" d="M768.557 624.218C768.844 624.218 769.078 623.985 769.078 623.697C769.078 623.41 768.844 623.177 768.557 623.177C768.27 623.177 768.037 623.41 768.037 623.697C768.037 623.985 768.27 624.218 768.557 624.218Z" fill="black"/>
<path opacity="0.8" d="M759.384 622.957C759.672 622.957 759.905 622.724 759.905 622.436C759.905 622.149 759.672 621.916 759.384 621.916C759.097 621.916 758.864 622.149 758.864 622.436C758.864 622.724 759.097 622.957 759.384 622.957Z" fill="black"/>
<path opacity="0.8" d="M762.423 623.697C762.711 623.697 762.944 623.464 762.944 623.177C762.944 622.889 762.711 622.656 762.423 622.656C762.136 622.656 761.903 622.889 761.903 623.177C761.903 623.464 762.136 623.697 762.423 623.697Z" fill="black"/>
<path opacity="0.8" d="M753.707 621.916C753.994 621.916 754.227 621.683 754.227 621.395C754.227 621.108 753.994 620.875 753.707 620.875C753.419 620.875 753.186 621.108 753.186 621.395C753.186 621.683 753.419 621.916 753.707 621.916Z" fill="black"/>
<path opacity="0.8" d="M756.441 622.436C756.729 622.436 756.962 622.203 756.962 621.916C756.962 621.628 756.729 621.395 756.441 621.395C756.154 621.395 755.921 621.628 755.921 621.916C755.921 622.203 756.154 622.436 756.441 622.436Z" fill="black"/>
<path opacity="0.8" d="M750.71 620.875C750.998 620.875 751.231 620.642 751.231 620.355C751.231 620.067 750.998 619.834 750.71 619.834C750.423 619.834 750.19 620.067 750.19 620.355C750.19 620.642 750.423 620.875 750.71 620.875Z" fill="black"/>
<path opacity="0.8" d="M783.982 622.656C784.27 622.656 784.503 622.423 784.503 622.136C784.503 621.849 784.27 621.616 783.982 621.616C783.695 621.616 783.462 621.849 783.462 622.136C783.462 622.423 783.695 622.656 783.982 622.656Z" fill="black"/>
<path opacity="0.8" d="M777.944 623.697C778.231 623.697 778.464 623.464 778.464 623.177C778.464 622.889 778.231 622.656 777.944 622.656C777.656 622.656 777.423 622.889 777.423 623.177C777.423 623.464 777.656 623.697 777.944 623.697Z" fill="black"/>
<path opacity="0.8" d="M771.391 624.218C771.679 624.218 771.912 623.985 771.912 623.697C771.912 623.41 771.679 623.177 771.391 623.177C771.104 623.177 770.871 623.41 770.871 623.697C770.871 623.985 771.104 624.218 771.391 624.218Z" fill="black"/>
<path opacity="0.8" d="M765.43 624.218C765.718 624.218 765.951 623.985 765.951 623.697C765.951 623.41 765.718 623.177 765.43 623.177C765.143 623.177 764.91 623.41 764.91 623.697C764.91 623.985 765.143 624.218 765.43 624.218Z" fill="black"/>
</g>
<g opacity="0.8">
<path opacity="0.8" d="M792.877 622.697C793.164 622.697 793.397 622.464 793.397 622.177C793.397 621.89 793.164 621.657 792.877 621.657C792.59 621.657 792.357 621.89 792.357 622.177C792.357 622.464 792.59 622.697 792.877 622.697Z" fill="black"/>
<path opacity="0.8" d="M790.235 623.436C790.522 623.436 790.755 623.203 790.755 622.916C790.755 622.628 790.522 622.395 790.235 622.395C789.948 622.395 789.715 622.628 789.715 622.916C789.715 623.203 789.948 623.436 790.235 623.436Z" fill="black"/>
<path opacity="0.8" d="M786.971 624.477C787.258 624.477 787.491 624.244 787.491 623.956C787.491 623.669 787.258 623.436 786.971 623.436C786.683 623.436 786.45 623.669 786.45 623.956C786.45 624.244 786.683 624.477 786.971 624.477Z" fill="black"/>
<path opacity="0.8" d="M781.118 625.738C781.406 625.738 781.639 625.505 781.639 625.217C781.639 624.93 781.406 624.697 781.118 624.697C780.831 624.697 780.598 624.93 780.598 625.217C780.598 625.505 780.831 625.738 781.118 625.738Z" fill="black"/>
<path opacity="0.8" d="M774.948 626.485C775.235 626.485 775.468 626.252 775.468 625.964C775.468 625.677 775.235 625.444 774.948 625.444C774.66 625.444 774.427 625.677 774.427 625.964C774.427 626.252 774.66 626.485 774.948 626.485Z" fill="black"/>
<path opacity="0.8" d="M768.557 626.779C768.844 626.779 769.078 626.546 769.078 626.258C769.078 625.971 768.844 625.738 768.557 625.738C768.27 625.738 768.037 625.971 768.037 626.258C768.037 626.546 768.27 626.779 768.557 626.779Z" fill="black"/>
<path opacity="0.8" d="M759.384 625.518C759.672 625.518 759.905 625.285 759.905 624.997C759.905 624.71 759.672 624.477 759.384 624.477C759.097 624.477 758.864 624.71 758.864 624.997C758.864 625.285 759.097 625.518 759.384 625.518Z" fill="black"/>
<path opacity="0.8" d="M762.423 626.258C762.711 626.258 762.944 626.025 762.944 625.738C762.944 625.45 762.711 625.217 762.423 625.217C762.136 625.217 761.903 625.45 761.903 625.738C761.903 626.025 762.136 626.258 762.423 626.258Z" fill="black"/>
<path opacity="0.8" d="M753.707 624.477C753.994 624.477 754.227 624.244 754.227 623.956C754.227 623.669 753.994 623.436 753.707 623.436C753.419 623.436 753.186 623.669 753.186 623.956C753.186 624.244 753.419 624.477 753.707 624.477Z" fill="black"/>
<path opacity="0.8" d="M756.441 624.997C756.729 624.997 756.962 624.764 756.962 624.477C756.962 624.189 756.729 623.956 756.441 623.956C756.154 623.956 755.921 624.189 755.921 624.477C755.921 624.764 756.154 624.997 756.441 624.997Z" fill="black"/>
<path opacity="0.8" d="M750.71 623.436C750.998 623.436 751.231 623.203 751.231 622.916C751.231 622.628 750.998 622.395 750.71 622.395C750.423 622.395 750.19 622.628 750.19 622.916C750.19 623.203 750.423 623.436 750.71 623.436Z" fill="black"/>
<path opacity="0.8" d="M783.982 625.217C784.27 625.217 784.503 624.984 784.503 624.697C784.503 624.41 784.27 624.177 783.982 624.177C783.695 624.177 783.462 624.41 783.462 624.697C783.462 624.984 783.695 625.217 783.982 625.217Z" fill="black"/>
<path opacity="0.8" d="M777.944 626.258C778.231 626.258 778.464 626.025 778.464 625.738C778.464 625.45 778.231 625.217 777.944 625.217C777.656 625.217 777.423 625.45 777.423 625.738C777.423 626.025 777.656 626.258 777.944 626.258Z" fill="black"/>
<path opacity="0.8" d="M771.391 626.779C771.679 626.779 771.912 626.546 771.912 626.258C771.912 625.971 771.679 625.738 771.391 625.738C771.104 625.738 770.871 625.971 770.871 626.258C770.871 626.546 771.104 626.779 771.391 626.779Z" fill="black"/>
<path opacity="0.8" d="M765.43 626.779C765.718 626.779 765.951 626.546 765.951 626.258C765.951 625.971 765.718 625.738 765.43 625.738C765.143 625.738 764.91 625.971 764.91 626.258C764.91 626.546 765.143 626.779 765.43 626.779Z" fill="black"/>
</g>
<g opacity="0.8">
<path opacity="0.8" d="M792.877 625.258C793.164 625.258 793.397 625.025 793.397 624.738C793.397 624.451 793.164 624.218 792.877 624.218C792.59 624.218 792.357 624.451 792.357 624.738C792.357 625.025 792.59 625.258 792.877 625.258Z" fill="black"/>
<path opacity="0.8" d="M790.235 625.997C790.522 625.997 790.755 625.764 790.755 625.477C790.755 625.189 790.522 624.956 790.235 624.956C789.948 624.956 789.715 625.189 789.715 625.477C789.715 625.764 789.948 625.997 790.235 625.997Z" fill="black"/>
<path opacity="0.8" d="M786.971 627.038C787.258 627.038 787.491 626.805 787.491 626.518C787.491 626.23 787.258 625.997 786.971 625.997C786.683 625.997 786.45 626.23 786.45 626.518C786.45 626.805 786.683 627.038 786.971 627.038Z" fill="black"/>
<path opacity="0.8" d="M781.118 628.299C781.406 628.299 781.639 628.066 781.639 627.778C781.639 627.491 781.406 627.258 781.118 627.258C780.831 627.258 780.598 627.491 780.598 627.778C780.598 628.066 780.831 628.299 781.118 628.299Z" fill="black"/>
<path opacity="0.8" d="M774.948 629.046C775.235 629.046 775.468 628.813 775.468 628.526C775.468 628.238 775.235 628.005 774.948 628.005C774.66 628.005 774.427 628.238 774.427 628.526C774.427 628.813 774.66 629.046 774.948 629.046Z" fill="black"/>
<path opacity="0.8" d="M768.557 629.34C768.844 629.34 769.078 629.107 769.078 628.819C769.078 628.532 768.844 628.299 768.557 628.299C768.27 628.299 768.037 628.532 768.037 628.819C768.037 629.107 768.27 629.34 768.557 629.34Z" fill="black"/>
<path opacity="0.8" d="M759.384 628.079C759.672 628.079 759.905 627.846 759.905 627.558C759.905 627.271 759.672 627.038 759.384 627.038C759.097 627.038 758.864 627.271 758.864 627.558C758.864 627.846 759.097 628.079 759.384 628.079Z" fill="black"/>
<path opacity="0.8" d="M762.423 628.819C762.711 628.819 762.944 628.586 762.944 628.299C762.944 628.011 762.711 627.778 762.423 627.778C762.136 627.778 761.903 628.011 761.903 628.299C761.903 628.586 762.136 628.819 762.423 628.819Z" fill="black"/>
<path opacity="0.8" d="M753.707 627.038C753.994 627.038 754.227 626.805 754.227 626.518C754.227 626.23 753.994 625.997 753.707 625.997C753.419 625.997 753.186 626.23 753.186 626.518C753.186 626.805 753.419 627.038 753.707 627.038Z" fill="black"/>
<path opacity="0.8" d="M756.441 627.558C756.729 627.558 756.962 627.325 756.962 627.038C756.962 626.75 756.729 626.518 756.441 626.518C756.154 626.518 755.921 626.75 755.921 627.038C755.921 627.325 756.154 627.558 756.441 627.558Z" fill="black"/>
<path opacity="0.8" d="M750.71 625.997C750.998 625.997 751.231 625.764 751.231 625.477C751.231 625.189 750.998 624.956 750.71 624.956C750.423 624.956 750.19 625.189 750.19 625.477C750.19 625.764 750.423 625.997 750.71 625.997Z" fill="black"/>
<path opacity="0.8" d="M783.982 627.778C784.27 627.778 784.503 627.545 784.503 627.258C784.503 626.971 784.27 626.738 783.982 626.738C783.695 626.738 783.462 626.971 783.462 627.258C783.462 627.545 783.695 627.778 783.982 627.778Z" fill="black"/>
<path opacity="0.8" d="M777.944 628.819C778.231 628.819 778.464 628.586 778.464 628.299C778.464 628.011 778.231 627.778 777.944 627.778C777.656 627.778 777.423 628.011 777.423 628.299C777.423 628.586 777.656 628.819 777.944 628.819Z" fill="black"/>
<path opacity="0.8" d="M771.391 629.34C771.679 629.34 771.912 629.107 771.912 628.819C771.912 628.532 771.679 628.299 771.391 628.299C771.104 628.299 770.871 628.532 770.871 628.819C770.871 629.107 771.104 629.34 771.391 629.34Z" fill="black"/>
<path opacity="0.8" d="M765.43 629.34C765.718 629.34 765.951 629.107 765.951 628.819C765.951 628.532 765.718 628.299 765.43 628.299C765.143 628.299 764.91 628.532 764.91 628.819C764.91 629.107 765.143 629.34 765.43 629.34Z" fill="black"/>
</g>
<g opacity="0.8">
<path opacity="0.8" d="M792.877 627.819C793.164 627.819 793.397 627.586 793.397 627.299C793.397 627.012 793.164 626.779 792.877 626.779C792.59 626.779 792.357 627.012 792.357 627.299C792.357 627.586 792.59 627.819 792.877 627.819Z" fill="black"/>
<path opacity="0.8" d="M790.235 628.558C790.522 628.558 790.755 628.325 790.755 628.038C790.755 627.75 790.522 627.517 790.235 627.517C789.948 627.517 789.715 627.75 789.715 628.038C789.715 628.325 789.948 628.558 790.235 628.558Z" fill="black"/>
<path opacity="0.8" d="M786.971 629.599C787.258 629.599 787.491 629.366 787.491 629.078C787.491 628.791 787.258 628.558 786.971 628.558C786.683 628.558 786.45 628.791 786.45 629.078C786.45 629.366 786.683 629.599 786.971 629.599Z" fill="black"/>
<path opacity="0.8" d="M781.118 630.86C781.406 630.86 781.639 630.627 781.639 630.339C781.639 630.052 781.406 629.819 781.118 629.819C780.831 629.819 780.598 630.052 780.598 630.339C780.598 630.627 780.831 630.86 781.118 630.86Z" fill="black"/>
<path opacity="0.8" d="M774.948 631.607C775.235 631.607 775.468 631.374 775.468 631.087C775.468 630.799 775.235 630.566 774.948 630.566C774.66 630.566 774.427 630.799 774.427 631.087C774.427 631.374 774.66 631.607 774.948 631.607Z" fill="black"/>
<path opacity="0.8" d="M768.557 631.901C768.844 631.901 769.078 631.668 769.078 631.38C769.078 631.093 768.844 630.86 768.557 630.86C768.27 630.86 768.037 631.093 768.037 631.38C768.037 631.668 768.27 631.901 768.557 631.901Z" fill="black"/>
<path opacity="0.8" d="M759.384 630.64C759.672 630.64 759.905 630.407 759.905 630.119C759.905 629.832 759.672 629.599 759.384 629.599C759.097 629.599 758.864 629.832 758.864 630.119C758.864 630.407 759.097 630.64 759.384 630.64Z" fill="black"/>
<path opacity="0.8" d="M762.423 631.38C762.711 631.38 762.944 631.147 762.944 630.86C762.944 630.572 762.711 630.339 762.423 630.339C762.136 630.339 761.903 630.572 761.903 630.86C761.903 631.147 762.136 631.38 762.423 631.38Z" fill="black"/>
<path opacity="0.8" d="M753.707 629.599C753.994 629.599 754.227 629.366 754.227 629.078C754.227 628.791 753.994 628.558 753.707 628.558C753.419 628.558 753.186 628.791 753.186 629.078C753.186 629.366 753.419 629.599 753.707 629.599Z" fill="black"/>
<path opacity="0.8" d="M756.441 630.119C756.729 630.119 756.962 629.886 756.962 629.599C756.962 629.312 756.729 629.078 756.441 629.078C756.154 629.078 755.921 629.312 755.921 629.599C755.921 629.886 756.154 630.119 756.441 630.119Z" fill="black"/>
<path opacity="0.8" d="M750.71 628.558C750.998 628.558 751.231 628.325 751.231 628.038C751.231 627.75 750.998 627.517 750.71 627.517C750.423 627.517 750.19 627.75 750.19 628.038C750.19 628.325 750.423 628.558 750.71 628.558Z" fill="black"/>
<path opacity="0.8" d="M783.982 630.339C784.27 630.339 784.503 630.106 784.503 629.819C784.503 629.532 784.27 629.299 783.982 629.299C783.695 629.299 783.462 629.532 783.462 629.819C783.462 630.106 783.695 630.339 783.982 630.339Z" fill="black"/>
<path opacity="0.8" d="M777.944 631.38C778.231 631.38 778.464 631.147 778.464 630.86C778.464 630.572 778.231 630.339 777.944 630.339C777.656 630.339 777.423 630.572 777.423 630.86C777.423 631.147 777.656 631.38 777.944 631.38Z" fill="black"/>
<path opacity="0.8" d="M771.391 631.901C771.679 631.901 771.912 631.668 771.912 631.38C771.912 631.093 771.679 630.86 771.391 630.86C771.104 630.86 770.871 631.093 770.871 631.38C770.871 631.668 771.104 631.901 771.391 631.901Z" fill="black"/>
<path opacity="0.8" d="M765.43 631.901C765.718 631.901 765.951 631.668 765.951 631.38C765.951 631.093 765.718 630.86 765.43 630.86C765.143 630.86 764.91 631.093 764.91 631.38C764.91 631.668 765.143 631.901 765.43 631.901Z" fill="black"/>
</g>
<g opacity="0.8">
<path opacity="0.8" d="M792.877 630.38C793.164 630.38 793.397 630.147 793.397 629.86C793.397 629.573 793.164 629.34 792.877 629.34C792.59 629.34 792.357 629.573 792.357 629.86C792.357 630.147 792.59 630.38 792.877 630.38Z" fill="black"/>
<path opacity="0.8" d="M790.235 631.119C790.522 631.119 790.755 630.886 790.755 630.599C790.755 630.311 790.522 630.078 790.235 630.078C789.948 630.078 789.715 630.311 789.715 630.599C789.715 630.886 789.948 631.119 790.235 631.119Z" fill="black"/>
<path opacity="0.8" d="M786.971 632.16C787.258 632.16 787.491 631.927 787.491 631.64C787.491 631.352 787.258 631.119 786.971 631.119C786.683 631.119 786.45 631.352 786.45 631.64C786.45 631.927 786.683 632.16 786.971 632.16Z" fill="black"/>
<path opacity="0.8" d="M781.118 633.421C781.406 633.421 781.639 633.188 781.639 632.9C781.639 632.613 781.406 632.38 781.118 632.38C780.831 632.38 780.598 632.613 780.598 632.9C780.598 633.188 780.831 633.421 781.118 633.421Z" fill="black"/>
<path opacity="0.8" d="M774.948 634.168C775.235 634.168 775.468 633.935 775.468 633.648C775.468 633.36 775.235 633.127 774.948 633.127C774.66 633.127 774.427 633.36 774.427 633.648C774.427 633.935 774.66 634.168 774.948 634.168Z" fill="black"/>
<path opacity="0.8" d="M768.557 634.462C768.844 634.462 769.078 634.229 769.078 633.941C769.078 633.654 768.844 633.421 768.557 633.421C768.27 633.421 768.037 633.654 768.037 633.941C768.037 634.229 768.27 634.462 768.557 634.462Z" fill="black"/>
<path opacity="0.8" d="M759.384 633.201C759.672 633.201 759.905 632.968 759.905 632.68C759.905 632.393 759.672 632.16 759.384 632.16C759.097 632.16 758.864 632.393 758.864 632.68C758.864 632.968 759.097 633.201 759.384 633.201Z" fill="black"/>
<path opacity="0.8" d="M762.423 633.941C762.711 633.941 762.944 633.708 762.944 633.421C762.944 633.133 762.711 632.9 762.423 632.9C762.136 632.9 761.903 633.133 761.903 633.421C761.903 633.708 762.136 633.941 762.423 633.941Z" fill="black"/>
<path opacity="0.8" d="M753.707 632.16C753.994 632.16 754.227 631.927 754.227 631.64C754.227 631.352 753.994 631.119 753.707 631.119C753.419 631.119 753.186 631.352 753.186 631.64C753.186 631.927 753.419 632.16 753.707 632.16Z" fill="black"/>
<path opacity="0.8" d="M756.441 632.68C756.729 632.68 756.962 632.447 756.962 632.16C756.962 631.872 756.729 631.64 756.441 631.64C756.154 631.64 755.921 631.872 755.921 632.16C755.921 632.447 756.154 632.68 756.441 632.68Z" fill="black"/>
<path opacity="0.8" d="M750.71 631.119C750.998 631.119 751.231 630.886 751.231 630.599C751.231 630.311 750.998 630.078 750.71 630.078C750.423 630.078 750.19 630.311 750.19 630.599C750.19 630.886 750.423 631.119 750.71 631.119Z" fill="black"/>
<path opacity="0.8" d="M783.982 632.9C784.27 632.9 784.503 632.667 784.503 632.38C784.503 632.093 784.27 631.86 783.982 631.86C783.695 631.86 783.462 632.093 783.462 632.38C783.462 632.667 783.695 632.9 783.982 632.9Z" fill="black"/>
<path opacity="0.8" d="M777.944 633.941C778.231 633.941 778.464 633.708 778.464 633.421C778.464 633.133 778.231 632.9 777.944 632.9C777.656 632.9 777.423 633.133 777.423 633.421C777.423 633.708 777.656 633.941 777.944 633.941Z" fill="black"/>
<path opacity="0.8" d="M771.391 634.462C771.679 634.462 771.912 634.229 771.912 633.941C771.912 633.654 771.679 633.421 771.391 633.421C771.104 633.421 770.871 633.654 770.871 633.941C770.871 634.229 771.104 634.462 771.391 634.462Z" fill="black"/>
<path opacity="0.8" d="M765.43 634.462C765.718 634.462 765.951 634.229 765.951 633.941C765.951 633.654 765.718 633.421 765.43 633.421C765.143 633.421 764.91 633.654 764.91 633.941C764.91 634.229 765.143 634.462 765.43 634.462Z" fill="black"/>
</g>
<g opacity="0.8">
<path opacity="0.8" d="M792.877 632.942C793.164 632.942 793.397 632.709 793.397 632.421C793.397 632.134 793.164 631.901 792.877 631.901C792.59 631.901 792.357 632.134 792.357 632.421C792.357 632.709 792.59 632.942 792.877 632.942Z" fill="black"/>
<path opacity="0.8" d="M790.235 633.68C790.522 633.68 790.755 633.447 790.755 633.16C790.755 632.872 790.522 632.639 790.235 632.639C789.948 632.639 789.715 632.872 789.715 633.16C789.715 633.447 789.948 633.68 790.235 633.68Z" fill="black"/>
<path opacity="0.8" d="M786.971 634.721C787.258 634.721 787.491 634.488 787.491 634.201C787.491 633.913 787.258 633.68 786.971 633.68C786.683 633.68 786.45 633.913 786.45 634.201C786.45 634.488 786.683 634.721 786.971 634.721Z" fill="black"/>
<path opacity="0.8" d="M781.118 635.982C781.406 635.982 781.639 635.749 781.639 635.461C781.639 635.174 781.406 634.941 781.118 634.941C780.831 634.941 780.598 635.174 780.598 635.461C780.598 635.749 780.831 635.982 781.118 635.982Z" fill="black"/>
<path opacity="0.8" d="M774.948 636.729C775.235 636.729 775.468 636.496 775.468 636.209C775.468 635.921 775.235 635.688 774.948 635.688C774.66 635.688 774.427 635.921 774.427 636.209C774.427 636.496 774.66 636.729 774.948 636.729Z" fill="black"/>
<path opacity="0.8" d="M768.557 637.023C768.844 637.023 769.078 636.79 769.078 636.502C769.078 636.215 768.844 635.982 768.557 635.982C768.27 635.982 768.037 636.215 768.037 636.502C768.037 636.79 768.27 637.023 768.557 637.023Z" fill="black"/>
<path opacity="0.8" d="M759.384 635.762C759.672 635.762 759.905 635.529 759.905 635.241C759.905 634.954 759.672 634.721 759.384 634.721C759.097 634.721 758.864 634.954 758.864 635.241C758.864 635.529 759.097 635.762 759.384 635.762Z" fill="black"/>
<path opacity="0.8" d="M762.423 636.502C762.711 636.502 762.944 636.269 762.944 635.982C762.944 635.694 762.711 635.461 762.423 635.461C762.136 635.461 761.903 635.694 761.903 635.982C761.903 636.269 762.136 636.502 762.423 636.502Z" fill="black"/>
<path opacity="0.8" d="M753.707 634.721C753.994 634.721 754.227 634.488 754.227 634.201C754.227 633.913 753.994 633.68 753.707 633.68C753.419 633.68 753.186 633.913 753.186 634.201C753.186 634.488 753.419 634.721 753.707 634.721Z" fill="black"/>
<path opacity="0.8" d="M756.441 635.241C756.729 635.241 756.962 635.008 756.962 634.721C756.962 634.434 756.729 634.201 756.441 634.201C756.154 634.201 755.921 634.434 755.921 634.721C755.921 635.008 756.154 635.241 756.441 635.241Z" fill="black"/>
<path opacity="0.8" d="M750.71 633.68C750.998 633.68 751.231 633.447 751.231 633.16C751.231 632.872 750.998 632.639 750.71 632.639C750.423 632.639 750.19 632.872 750.19 633.16C750.19 633.447 750.423 633.68 750.71 633.68Z" fill="black"/>
<path opacity="0.8" d="M783.982 635.461C784.27 635.461 784.503 635.228 784.503 634.941C784.503 634.654 784.27 634.421 783.982 634.421C783.695 634.421 783.462 634.654 783.462 634.941C783.462 635.228 783.695 635.461 783.982 635.461Z" fill="black"/>
<path opacity="0.8" d="M777.944 636.502C778.231 636.502 778.464 636.269 778.464 635.982C778.464 635.694 778.231 635.461 777.944 635.461C777.656 635.461 777.423 635.694 777.423 635.982C777.423 636.269 777.656 636.502 777.944 636.502Z" fill="black"/>
<path opacity="0.8" d="M771.391 637.023C771.679 637.023 771.912 636.79 771.912 636.502C771.912 636.215 771.679 635.982 771.391 635.982C771.104 635.982 770.871 636.215 770.871 636.502C770.871 636.79 771.104 637.023 771.391 637.023Z" fill="black"/>
<path opacity="0.8" d="M765.43 637.023C765.718 637.023 765.951 636.79 765.951 636.502C765.951 636.215 765.718 635.982 765.43 635.982C765.143 635.982 764.91 636.215 764.91 636.502C764.91 636.79 765.143 637.023 765.43 637.023Z" fill="black"/>
</g>
<g opacity="0.8">
<path opacity="0.8" d="M792.877 635.503C793.164 635.503 793.397 635.27 793.397 634.982C793.397 634.695 793.164 634.462 792.877 634.462C792.59 634.462 792.357 634.695 792.357 634.982C792.357 635.27 792.59 635.503 792.877 635.503Z" fill="black"/>
<path opacity="0.8" d="M790.235 636.241C790.522 636.241 790.755 636.008 790.755 635.721C790.755 635.433 790.522 635.2 790.235 635.2C789.948 635.2 789.715 635.433 789.715 635.721C789.715 636.008 789.948 636.241 790.235 636.241Z" fill="black"/>
<path opacity="0.8" d="M786.971 637.282C787.258 637.282 787.491 637.049 787.491 636.762C787.491 636.474 787.258 636.241 786.971 636.241C786.683 636.241 786.45 636.474 786.45 636.762C786.45 637.049 786.683 637.282 786.971 637.282Z" fill="black"/>
<path opacity="0.8" d="M781.118 638.543C781.406 638.543 781.639 638.31 781.639 638.022C781.639 637.735 781.406 637.502 781.118 637.502C780.831 637.502 780.598 637.735 780.598 638.022C780.598 638.31 780.831 638.543 781.118 638.543Z" fill="black"/>
<path opacity="0.8" d="M774.948 639.29C775.235 639.29 775.468 639.057 775.468 638.77C775.468 638.482 775.235 638.249 774.948 638.249C774.66 638.249 774.427 638.482 774.427 638.77C774.427 639.057 774.66 639.29 774.948 639.29Z" fill="black"/>
<path opacity="0.8" d="M768.557 639.584C768.844 639.584 769.078 639.351 769.078 639.063C769.078 638.776 768.844 638.543 768.557 638.543C768.27 638.543 768.037 638.776 768.037 639.063C768.037 639.351 768.27 639.584 768.557 639.584Z" fill="black"/>
<path opacity="0.8" d="M759.384 638.323C759.672 638.323 759.905 638.09 759.905 637.802C759.905 637.515 759.672 637.282 759.384 637.282C759.097 637.282 758.864 637.515 758.864 637.802C758.864 638.09 759.097 638.323 759.384 638.323Z" fill="black"/>
<path opacity="0.8" d="M762.423 639.063C762.711 639.063 762.944 638.83 762.944 638.543C762.944 638.255 762.711 638.022 762.423 638.022C762.136 638.022 761.903 638.255 761.903 638.543C761.903 638.83 762.136 639.063 762.423 639.063Z" fill="black"/>
<path opacity="0.8" d="M753.707 637.282C753.994 637.282 754.227 637.049 754.227 636.762C754.227 636.474 753.994 636.241 753.707 636.241C753.419 636.241 753.186 636.474 753.186 636.762C753.186 637.049 753.419 637.282 753.707 637.282Z" fill="black"/>
<path opacity="0.8" d="M756.441 637.802C756.729 637.802 756.962 637.569 756.962 637.282C756.962 636.995 756.729 636.762 756.441 636.762C756.154 636.762 755.921 636.995 755.921 637.282C755.921 637.569 756.154 637.802 756.441 637.802Z" fill="black"/>
<path opacity="0.8" d="M750.71 636.241C750.998 636.241 751.231 636.008 751.231 635.721C751.231 635.433 750.998 635.2 750.71 635.2C750.423 635.2 750.19 635.433 750.19 635.721C750.19 636.008 750.423 636.241 750.71 636.241Z" fill="black"/>
<path opacity="0.8" d="M783.982 638.022C784.27 638.022 784.503 637.789 784.503 637.502C784.503 637.215 784.27 636.982 783.982 636.982C783.695 636.982 783.462 637.215 783.462 637.502C783.462 637.789 783.695 638.022 783.982 638.022Z" fill="black"/>
<path opacity="0.8" d="M777.944 639.063C778.231 639.063 778.464 638.83 778.464 638.543C778.464 638.255 778.231 638.022 777.944 638.022C777.656 638.022 777.423 638.255 777.423 638.543C777.423 638.83 777.656 639.063 777.944 639.063Z" fill="black"/>
<path opacity="0.8" d="M771.391 639.584C771.679 639.584 771.912 639.351 771.912 639.063C771.912 638.776 771.679 638.543 771.391 638.543C771.104 638.543 770.871 638.776 770.871 639.063C770.871 639.351 771.104 639.584 771.391 639.584Z" fill="black"/>
<path opacity="0.8" d="M765.43 639.584C765.718 639.584 765.951 639.351 765.951 639.063C765.951 638.776 765.718 638.543 765.43 638.543C765.143 638.543 764.91 638.776 764.91 639.063C764.91 639.351 765.143 639.584 765.43 639.584Z" fill="black"/>
</g>
<g opacity="0.8">
<path opacity="0.8" d="M792.877 638.064C793.164 638.064 793.397 637.831 793.397 637.543C793.397 637.256 793.164 637.023 792.877 637.023C792.59 637.023 792.357 637.256 792.357 637.543C792.357 637.831 792.59 638.064 792.877 638.064Z" fill="black"/>
<path opacity="0.8" d="M790.235 638.802C790.522 638.802 790.755 638.569 790.755 638.282C790.755 637.994 790.522 637.761 790.235 637.761C789.948 637.761 789.715 637.994 789.715 638.282C789.715 638.569 789.948 638.802 790.235 638.802Z" fill="black"/>
<path opacity="0.8" d="M786.971 639.843C787.258 639.843 787.491 639.61 787.491 639.323C787.491 639.035 787.258 638.802 786.971 638.802C786.683 638.802 786.45 639.035 786.45 639.323C786.45 639.61 786.683 639.843 786.971 639.843Z" fill="black"/>
<path opacity="0.8" d="M781.118 641.104C781.406 641.104 781.639 640.871 781.639 640.583C781.639 640.296 781.406 640.063 781.118 640.063C780.831 640.063 780.598 640.296 780.598 640.583C780.598 640.871 780.831 641.104 781.118 641.104Z" fill="black"/>
<path opacity="0.8" d="M774.948 641.851C775.235 641.851 775.468 641.618 775.468 641.331C775.468 641.043 775.235 640.81 774.948 640.81C774.66 640.81 774.427 641.043 774.427 641.331C774.427 641.618 774.66 641.851 774.948 641.851Z" fill="black"/>
<path opacity="0.8" d="M768.557 642.145C768.844 642.145 769.078 641.912 769.078 641.624C769.078 641.337 768.844 641.104 768.557 641.104C768.27 641.104 768.037 641.337 768.037 641.624C768.037 641.912 768.27 642.145 768.557 642.145Z" fill="black"/>
<path opacity="0.8" d="M759.384 640.884C759.672 640.884 759.905 640.651 759.905 640.363C759.905 640.076 759.672 639.843 759.384 639.843C759.097 639.843 758.864 640.076 758.864 640.363C758.864 640.651 759.097 640.884 759.384 640.884Z" fill="black"/>
<path opacity="0.8" d="M762.423 641.624C762.711 641.624 762.944 641.391 762.944 641.104C762.944 640.816 762.711 640.583 762.423 640.583C762.136 640.583 761.903 640.816 761.903 641.104C761.903 641.391 762.136 641.624 762.423 641.624Z" fill="black"/>
<path opacity="0.8" d="M753.707 639.843C753.994 639.843 754.227 639.61 754.227 639.323C754.227 639.035 753.994 638.802 753.707 638.802C753.419 638.802 753.186 639.035 753.186 639.323C753.186 639.61 753.419 639.843 753.707 639.843Z" fill="black"/>
<path opacity="0.8" d="M756.441 640.363C756.729 640.363 756.962 640.13 756.962 639.843C756.962 639.556 756.729 639.323 756.441 639.323C756.154 639.323 755.921 639.556 755.921 639.843C755.921 640.13 756.154 640.363 756.441 640.363Z" fill="black"/>
<path opacity="0.8" d="M750.71 638.802C750.998 638.802 751.231 638.569 751.231 638.282C751.231 637.994 750.998 637.761 750.71 637.761C750.423 637.761 750.19 637.994 750.19 638.282C750.19 638.569 750.423 638.802 750.71 638.802Z" fill="black"/>
<path opacity="0.8" d="M783.982 640.583C784.27 640.583 784.503 640.35 784.503 640.063C784.503 639.776 784.27 639.543 783.982 639.543C783.695 639.543 783.462 639.776 783.462 640.063C783.462 640.35 783.695 640.583 783.982 640.583Z" fill="black"/>
<path opacity="0.8" d="M777.944 641.624C778.231 641.624 778.464 641.391 778.464 641.104C778.464 640.816 778.231 640.583 777.944 640.583C777.656 640.583 777.423 640.816 777.423 641.104C777.423 641.391 777.656 641.624 777.944 641.624Z" fill="black"/>
<path opacity="0.8" d="M771.391 642.145C771.679 642.145 771.912 641.912 771.912 641.624C771.912 641.337 771.679 641.104 771.391 641.104C771.104 641.104 770.871 641.337 770.871 641.624C770.871 641.912 771.104 642.145 771.391 642.145Z" fill="black"/>
<path opacity="0.8" d="M765.43 642.145C765.718 642.145 765.951 641.912 765.951 641.624C765.951 641.337 765.718 641.104 765.43 641.104C765.143 641.104 764.91 641.337 764.91 641.624C764.91 641.912 765.143 642.145 765.43 642.145Z" fill="black"/>
</g>
<g opacity="0.8">
<path opacity="0.8" d="M792.877 640.625C793.164 640.625 793.397 640.392 793.397 640.104C793.397 639.817 793.164 639.584 792.877 639.584C792.59 639.584 792.357 639.817 792.357 640.104C792.357 640.392 792.59 640.625 792.877 640.625Z" fill="black"/>
<path opacity="0.8" d="M790.235 641.363C790.522 641.363 790.755 641.13 790.755 640.843C790.755 640.555 790.522 640.322 790.235 640.322C789.948 640.322 789.715 640.555 789.715 640.843C789.715 641.13 789.948 641.363 790.235 641.363Z" fill="black"/>
<path opacity="0.8" d="M786.971 642.404C787.258 642.404 787.491 642.171 787.491 641.884C787.491 641.596 787.258 641.363 786.971 641.363C786.683 641.363 786.45 641.596 786.45 641.884C786.45 642.171 786.683 642.404 786.971 642.404Z" fill="black"/>
<path opacity="0.8" d="M781.118 643.665C781.406 643.665 781.639 643.432 781.639 643.144C781.639 642.857 781.406 642.624 781.118 642.624C780.831 642.624 780.598 642.857 780.598 643.144C780.598 643.432 780.831 643.665 781.118 643.665Z" fill="black"/>
<path opacity="0.8" d="M774.948 644.412C775.235 644.412 775.468 644.179 775.468 643.892C775.468 643.604 775.235 643.371 774.948 643.371C774.66 643.371 774.427 643.604 774.427 643.892C774.427 644.179 774.66 644.412 774.948 644.412Z" fill="black"/>
<path opacity="0.8" d="M768.557 644.706C768.844 644.706 769.078 644.473 769.078 644.185C769.078 643.898 768.844 643.665 768.557 643.665C768.27 643.665 768.037 643.898 768.037 644.185C768.037 644.473 768.27 644.706 768.557 644.706Z" fill="black"/>
<path opacity="0.8" d="M759.384 643.445C759.672 643.445 759.905 643.212 759.905 642.924C759.905 642.637 759.672 642.404 759.384 642.404C759.097 642.404 758.864 642.637 758.864 642.924C758.864 643.212 759.097 643.445 759.384 643.445Z" fill="black"/>
<path opacity="0.8" d="M762.423 644.185C762.711 644.185 762.944 643.952 762.944 643.665C762.944 643.377 762.711 643.144 762.423 643.144C762.136 643.144 761.903 643.377 761.903 643.665C761.903 643.952 762.136 644.185 762.423 644.185Z" fill="black"/>
<path opacity="0.8" d="M753.707 642.404C753.994 642.404 754.227 642.171 754.227 641.884C754.227 641.596 753.994 641.363 753.707 641.363C753.419 641.363 753.186 641.596 753.186 641.884C753.186 642.171 753.419 642.404 753.707 642.404Z" fill="black"/>
<path opacity="0.8" d="M756.441 642.924C756.729 642.924 756.962 642.691 756.962 642.404C756.962 642.117 756.729 641.884 756.441 641.884C756.154 641.884 755.921 642.117 755.921 642.404C755.921 642.691 756.154 642.924 756.441 642.924Z" fill="black"/>
<path opacity="0.8" d="M750.71 641.363C750.998 641.363 751.231 641.13 751.231 640.843C751.231 640.555 750.998 640.322 750.71 640.322C750.423 640.322 750.19 640.555 750.19 640.843C750.19 641.13 750.423 641.363 750.71 641.363Z" fill="black"/>
<path opacity="0.8" d="M783.982 643.144C784.27 643.144 784.503 642.912 784.503 642.624C784.503 642.337 784.27 642.104 783.982 642.104C783.695 642.104 783.462 642.337 783.462 642.624C783.462 642.912 783.695 643.144 783.982 643.144Z" fill="black"/>
<path opacity="0.8" d="M777.944 644.185C778.231 644.185 778.464 643.952 778.464 643.665C778.464 643.377 778.231 643.144 777.944 643.144C777.656 643.144 777.423 643.377 777.423 643.665C777.423 643.952 777.656 644.185 777.944 644.185Z" fill="black"/>
<path opacity="0.8" d="M771.391 644.706C771.679 644.706 771.912 644.473 771.912 644.185C771.912 643.898 771.679 643.665 771.391 643.665C771.104 643.665 770.871 643.898 770.871 644.185C770.871 644.473 771.104 644.706 771.391 644.706Z" fill="black"/>
<path opacity="0.8" d="M765.43 644.706C765.718 644.706 765.951 644.473 765.951 644.185C765.951 643.898 765.718 643.665 765.43 643.665C765.143 643.665 764.91 643.898 764.91 644.185C764.91 644.473 765.143 644.706 765.43 644.706Z" fill="black"/>
</g>
<g opacity="0.8">
<path opacity="0.8" d="M792.877 643.186C793.164 643.186 793.397 642.953 793.397 642.665C793.397 642.378 793.164 642.145 792.877 642.145C792.59 642.145 792.357 642.378 792.357 642.665C792.357 642.953 792.59 643.186 792.877 643.186Z" fill="black"/>
<path opacity="0.8" d="M790.235 643.924C790.522 643.924 790.755 643.691 790.755 643.404C790.755 643.116 790.522 642.883 790.235 642.883C789.948 642.883 789.715 643.116 789.715 643.404C789.715 643.691 789.948 643.924 790.235 643.924Z" fill="black"/>
<path opacity="0.8" d="M786.971 644.965C787.258 644.965 787.491 644.732 787.491 644.445C787.491 644.157 787.258 643.924 786.971 643.924C786.683 643.924 786.45 644.157 786.45 644.445C786.45 644.732 786.683 644.965 786.971 644.965Z" fill="black"/>
<path opacity="0.8" d="M781.118 646.226C781.406 646.226 781.639 645.993 781.639 645.706C781.639 645.418 781.406 645.185 781.118 645.185C780.831 645.185 780.598 645.418 780.598 645.706C780.598 645.993 780.831 646.226 781.118 646.226Z" fill="black"/>
<path opacity="0.8" d="M774.948 646.973C775.235 646.973 775.468 646.74 775.468 646.453C775.468 646.165 775.235 645.932 774.948 645.932C774.66 645.932 774.427 646.165 774.427 646.453C774.427 646.74 774.66 646.973 774.948 646.973Z" fill="black"/>
<path opacity="0.8" d="M768.557 647.267C768.844 647.267 769.078 647.034 769.078 646.746C769.078 646.459 768.844 646.226 768.557 646.226C768.27 646.226 768.037 646.459 768.037 646.746C768.037 647.034 768.27 647.267 768.557 647.267Z" fill="black"/>
<path opacity="0.8" d="M759.384 646.006C759.672 646.006 759.905 645.773 759.905 645.485C759.905 645.198 759.672 644.965 759.384 644.965C759.097 644.965 758.864 645.198 758.864 645.485C758.864 645.773 759.097 646.006 759.384 646.006Z" fill="black"/>
<path opacity="0.8" d="M762.423 646.746C762.711 646.746 762.944 646.513 762.944 646.226C762.944 645.939 762.711 645.706 762.423 645.706C762.136 645.706 761.903 645.939 761.903 646.226C761.903 646.513 762.136 646.746 762.423 646.746Z" fill="black"/>
<path opacity="0.8" d="M753.707 644.965C753.994 644.965 754.227 644.732 754.227 644.445C754.227 644.157 753.994 643.924 753.707 643.924C753.419 643.924 753.186 644.157 753.186 644.445C753.186 644.732 753.419 644.965 753.707 644.965Z" fill="black"/>
<path opacity="0.8" d="M756.441 645.485C756.729 645.485 756.962 645.252 756.962 644.965C756.962 644.678 756.729 644.445 756.441 644.445C756.154 644.445 755.921 644.678 755.921 644.965C755.921 645.252 756.154 645.485 756.441 645.485Z" fill="black"/>
<path opacity="0.8" d="M750.71 643.924C750.998 643.924 751.231 643.691 751.231 643.404C751.231 643.116 750.998 642.883 750.71 642.883C750.423 642.883 750.19 643.116 750.19 643.404C750.19 643.691 750.423 643.924 750.71 643.924Z" fill="black"/>
<path opacity="0.8" d="M783.982 645.706C784.27 645.706 784.503 645.473 784.503 645.185C784.503 644.898 784.27 644.665 783.982 644.665C783.695 644.665 783.462 644.898 783.462 645.185C783.462 645.473 783.695 645.706 783.982 645.706Z" fill="black"/>
<path opacity="0.8" d="M777.944 646.746C778.231 646.746 778.464 646.513 778.464 646.226C778.464 645.939 778.231 645.706 777.944 645.706C777.656 645.706 777.423 645.939 777.423 646.226C777.423 646.513 777.656 646.746 777.944 646.746Z" fill="black"/>
<path opacity="0.8" d="M771.391 647.267C771.679 647.267 771.912 647.034 771.912 646.746C771.912 646.459 771.679 646.226 771.391 646.226C771.104 646.226 770.871 646.459 770.871 646.746C770.871 647.034 771.104 647.267 771.391 647.267Z" fill="black"/>
<path opacity="0.8" d="M765.43 647.267C765.718 647.267 765.951 647.034 765.951 646.746C765.951 646.459 765.718 646.226 765.43 646.226C765.143 646.226 764.91 646.459 764.91 646.746C764.91 647.034 765.143 647.267 765.43 647.267Z" fill="black"/>
</g>
<g opacity="0.8">
<path opacity="0.8" d="M792.877 645.747C793.164 645.747 793.397 645.514 793.397 645.226C793.397 644.939 793.164 644.706 792.877 644.706C792.59 644.706 792.357 644.939 792.357 645.226C792.357 645.514 792.59 645.747 792.877 645.747Z" fill="black"/>
<path opacity="0.8" d="M790.235 646.485C790.522 646.485 790.755 646.252 790.755 645.965C790.755 645.677 790.522 645.444 790.235 645.444C789.948 645.444 789.715 645.677 789.715 645.965C789.715 646.252 789.948 646.485 790.235 646.485Z" fill="black"/>
<path opacity="0.8" d="M786.971 647.526C787.258 647.526 787.491 647.293 787.491 647.006C787.491 646.718 787.258 646.485 786.971 646.485C786.683 646.485 786.45 646.718 786.45 647.006C786.45 647.293 786.683 647.526 786.971 647.526Z" fill="black"/>
<path opacity="0.8" d="M781.118 648.787C781.406 648.787 781.639 648.554 781.639 648.267C781.639 647.979 781.406 647.746 781.118 647.746C780.831 647.746 780.598 647.979 780.598 648.267C780.598 648.554 780.831 648.787 781.118 648.787Z" fill="black"/>
<path opacity="0.8" d="M774.948 649.534C775.235 649.534 775.468 649.301 775.468 649.014C775.468 648.726 775.235 648.493 774.948 648.493C774.66 648.493 774.427 648.726 774.427 649.014C774.427 649.301 774.66 649.534 774.948 649.534Z" fill="black"/>
<path opacity="0.8" d="M768.557 649.828C768.844 649.828 769.078 649.595 769.078 649.307C769.078 649.02 768.844 648.787 768.557 648.787C768.27 648.787 768.037 649.02 768.037 649.307C768.037 649.595 768.27 649.828 768.557 649.828Z" fill="black"/>
<path opacity="0.8" d="M759.384 648.567C759.672 648.567 759.905 648.334 759.905 648.046C759.905 647.759 759.672 647.526 759.384 647.526C759.097 647.526 758.864 647.759 758.864 648.046C758.864 648.334 759.097 648.567 759.384 648.567Z" fill="black"/>
<path opacity="0.8" d="M762.423 649.307C762.711 649.307 762.944 649.074 762.944 648.787C762.944 648.5 762.711 648.267 762.423 648.267C762.136 648.267 761.903 648.5 761.903 648.787C761.903 649.074 762.136 649.307 762.423 649.307Z" fill="black"/>
<path opacity="0.8" d="M753.707 647.526C753.994 647.526 754.227 647.293 754.227 647.006C754.227 646.718 753.994 646.485 753.707 646.485C753.419 646.485 753.186 646.718 753.186 647.006C753.186 647.293 753.419 647.526 753.707 647.526Z" fill="black"/>
<path opacity="0.8" d="M756.441 648.046C756.729 648.046 756.962 647.813 756.962 647.526C756.962 647.239 756.729 647.006 756.441 647.006C756.154 647.006 755.921 647.239 755.921 647.526C755.921 647.813 756.154 648.046 756.441 648.046Z" fill="black"/>
<path opacity="0.8" d="M750.71 646.485C750.998 646.485 751.231 646.252 751.231 645.965C751.231 645.677 750.998 645.444 750.71 645.444C750.423 645.444 750.19 645.677 750.19 645.965C750.19 646.252 750.423 646.485 750.71 646.485Z" fill="black"/>
<path opacity="0.8" d="M783.982 648.267C784.27 648.267 784.503 648.034 784.503 647.746C784.503 647.459 784.27 647.226 783.982 647.226C783.695 647.226 783.462 647.459 783.462 647.746C783.462 648.034 783.695 648.267 783.982 648.267Z" fill="black"/>
<path opacity="0.8" d="M777.944 649.307C778.231 649.307 778.464 649.074 778.464 648.787C778.464 648.5 778.231 648.267 777.944 648.267C777.656 648.267 777.423 648.5 777.423 648.787C777.423 649.074 777.656 649.307 777.944 649.307Z" fill="black"/>
<path opacity="0.8" d="M771.391 649.828C771.679 649.828 771.912 649.595 771.912 649.307C771.912 649.02 771.679 648.787 771.391 648.787C771.104 648.787 770.871 649.02 770.871 649.307C770.871 649.595 771.104 649.828 771.391 649.828Z" fill="black"/>
<path opacity="0.8" d="M765.43 649.828C765.718 649.828 765.951 649.595 765.951 649.307C765.951 649.02 765.718 648.787 765.43 648.787C765.143 648.787 764.91 649.02 764.91 649.307C764.91 649.595 765.143 649.828 765.43 649.828Z" fill="black"/>
</g>
<g opacity="0.8">
<path opacity="0.8" d="M792.877 648.308C793.164 648.308 793.397 648.075 793.397 647.787C793.397 647.5 793.164 647.267 792.877 647.267C792.59 647.267 792.357 647.5 792.357 647.787C792.357 648.075 792.59 648.308 792.877 648.308Z" fill="black"/>
<path opacity="0.8" d="M790.235 649.046C790.522 649.046 790.755 648.813 790.755 648.526C790.755 648.238 790.522 648.005 790.235 648.005C789.948 648.005 789.715 648.238 789.715 648.526C789.715 648.813 789.948 649.046 790.235 649.046Z" fill="black"/>
<path opacity="0.8" d="M786.971 650.087C787.258 650.087 787.491 649.854 787.491 649.567C787.491 649.279 787.258 649.046 786.971 649.046C786.683 649.046 786.45 649.279 786.45 649.567C786.45 649.854 786.683 650.087 786.971 650.087Z" fill="black"/>
<path opacity="0.8" d="M781.118 651.348C781.406 651.348 781.639 651.115 781.639 650.828C781.639 650.54 781.406 650.307 781.118 650.307C780.831 650.307 780.598 650.54 780.598 650.828C780.598 651.115 780.831 651.348 781.118 651.348Z" fill="black"/>
<path opacity="0.8" d="M774.948 652.095C775.235 652.095 775.468 651.862 775.468 651.575C775.468 651.287 775.235 651.054 774.948 651.054C774.66 651.054 774.427 651.287 774.427 651.575C774.427 651.862 774.66 652.095 774.948 652.095Z" fill="black"/>
<path opacity="0.8" d="M768.557 652.389C768.844 652.389 769.078 652.156 769.078 651.868C769.078 651.581 768.844 651.348 768.557 651.348C768.27 651.348 768.037 651.581 768.037 651.868C768.037 652.156 768.27 652.389 768.557 652.389Z" fill="black"/>
<path opacity="0.8" d="M759.384 651.128C759.672 651.128 759.905 650.895 759.905 650.607C759.905 650.32 759.672 650.087 759.384 650.087C759.097 650.087 758.864 650.32 758.864 650.607C758.864 650.895 759.097 651.128 759.384 651.128Z" fill="black"/>
<path opacity="0.8" d="M762.423 651.868C762.711 651.868 762.944 651.635 762.944 651.348C762.944 651.061 762.711 650.828 762.423 650.828C762.136 650.828 761.903 651.061 761.903 651.348C761.903 651.635 762.136 651.868 762.423 651.868Z" fill="black"/>
<path opacity="0.8" d="M753.707 650.087C753.994 650.087 754.227 649.854 754.227 649.567C754.227 649.279 753.994 649.046 753.707 649.046C753.419 649.046 753.186 649.279 753.186 649.567C753.186 649.854 753.419 650.087 753.707 650.087Z" fill="black"/>
<path opacity="0.8" d="M756.441 650.607C756.729 650.607 756.962 650.375 756.962 650.087C756.962 649.8 756.729 649.567 756.441 649.567C756.154 649.567 755.921 649.8 755.921 650.087C755.921 650.375 756.154 650.607 756.441 650.607Z" fill="black"/>
<path opacity="0.8" d="M750.71 649.046C750.998 649.046 751.231 648.813 751.231 648.526C751.231 648.238 750.998 648.005 750.71 648.005C750.423 648.005 750.19 648.238 750.19 648.526C750.19 648.813 750.423 649.046 750.71 649.046Z" fill="black"/>
<path opacity="0.8" d="M783.982 650.828C784.27 650.828 784.503 650.595 784.503 650.307C784.503 650.02 784.27 649.787 783.982 649.787C783.695 649.787 783.462 650.02 783.462 650.307C783.462 650.595 783.695 650.828 783.982 650.828Z" fill="black"/>
<path opacity="0.8" d="M777.944 651.868C778.231 651.868 778.464 651.635 778.464 651.348C778.464 651.061 778.231 650.828 777.944 650.828C777.656 650.828 777.423 651.061 777.423 651.348C777.423 651.635 777.656 651.868 777.944 651.868Z" fill="black"/>
<path opacity="0.8" d="M771.391 652.389C771.679 652.389 771.912 652.156 771.912 651.868C771.912 651.581 771.679 651.348 771.391 651.348C771.104 651.348 770.871 651.581 770.871 651.868C770.871 652.156 771.104 652.389 771.391 652.389Z" fill="black"/>
<path opacity="0.8" d="M765.43 652.389C765.718 652.389 765.951 652.156 765.951 651.868C765.951 651.581 765.718 651.348 765.43 651.348C765.143 651.348 764.91 651.581 764.91 651.868C764.91 652.156 765.143 652.389 765.43 652.389Z" fill="black"/>
</g>
<g opacity="0.8">
<path opacity="0.8" d="M792.877 650.869C793.164 650.869 793.397 650.636 793.397 650.348C793.397 650.061 793.164 649.828 792.877 649.828C792.59 649.828 792.357 650.061 792.357 650.348C792.357 650.636 792.59 650.869 792.877 650.869Z" fill="black"/>
<path opacity="0.8" d="M790.235 651.607C790.522 651.607 790.755 651.374 790.755 651.087C790.755 650.799 790.522 650.566 790.235 650.566C789.948 650.566 789.715 650.799 789.715 651.087C789.715 651.374 789.948 651.607 790.235 651.607Z" fill="black"/>
<path opacity="0.8" d="M786.971 652.648C787.258 652.648 787.491 652.415 787.491 652.128C787.491 651.84 787.258 651.607 786.971 651.607C786.683 651.607 786.45 651.84 786.45 652.128C786.45 652.415 786.683 652.648 786.971 652.648Z" fill="black"/>
<path opacity="0.8" d="M781.118 653.909C781.406 653.909 781.639 653.676 781.639 653.389C781.639 653.101 781.406 652.868 781.118 652.868C780.831 652.868 780.598 653.101 780.598 653.389C780.598 653.676 780.831 653.909 781.118 653.909Z" fill="black"/>
<path opacity="0.8" d="M774.948 654.656C775.235 654.656 775.468 654.423 775.468 654.136C775.468 653.848 775.235 653.615 774.948 653.615C774.66 653.615 774.427 653.848 774.427 654.136C774.427 654.423 774.66 654.656 774.948 654.656Z" fill="black"/>
<path opacity="0.8" d="M768.557 654.95C768.844 654.95 769.078 654.717 769.078 654.429C769.078 654.142 768.844 653.909 768.557 653.909C768.27 653.909 768.037 654.142 768.037 654.429C768.037 654.717 768.27 654.95 768.557 654.95Z" fill="black"/>
<path opacity="0.8" d="M759.384 653.689C759.672 653.689 759.905 653.456 759.905 653.169C759.905 652.881 759.672 652.648 759.384 652.648C759.097 652.648 758.864 652.881 758.864 653.169C758.864 653.456 759.097 653.689 759.384 653.689Z" fill="black"/>
<path opacity="0.8" d="M762.423 654.429C762.711 654.429 762.944 654.196 762.944 653.909C762.944 653.622 762.711 653.389 762.423 653.389C762.136 653.389 761.903 653.622 761.903 653.909C761.903 654.196 762.136 654.429 762.423 654.429Z" fill="black"/>
<path opacity="0.8" d="M753.707 652.648C753.994 652.648 754.227 652.415 754.227 652.128C754.227 651.84 753.994 651.607 753.707 651.607C753.419 651.607 753.186 651.84 753.186 652.128C753.186 652.415 753.419 652.648 753.707 652.648Z" fill="black"/>
<path opacity="0.8" d="M756.441 653.169C756.729 653.169 756.962 652.935 756.962 652.648C756.962 652.361 756.729 652.128 756.441 652.128C756.154 652.128 755.921 652.361 755.921 652.648C755.921 652.935 756.154 653.169 756.441 653.169Z" fill="black"/>
<path opacity="0.8" d="M750.71 651.607C750.998 651.607 751.231 651.374 751.231 651.087C751.231 650.799 750.998 650.566 750.71 650.566C750.423 650.566 750.19 650.799 750.19 651.087C750.19 651.374 750.423 651.607 750.71 651.607Z" fill="black"/>
<path opacity="0.8" d="M783.982 653.389C784.27 653.389 784.503 653.156 784.503 652.868C784.503 652.581 784.27 652.348 783.982 652.348C783.695 652.348 783.462 652.581 783.462 652.868C783.462 653.156 783.695 653.389 783.982 653.389Z" fill="black"/>
<path opacity="0.8" d="M777.944 654.429C778.231 654.429 778.464 654.196 778.464 653.909C778.464 653.622 778.231 653.389 777.944 653.389C777.656 653.389 777.423 653.622 777.423 653.909C777.423 654.196 777.656 654.429 777.944 654.429Z" fill="black"/>
<path opacity="0.8" d="M771.391 654.95C771.679 654.95 771.912 654.717 771.912 654.429C771.912 654.142 771.679 653.909 771.391 653.909C771.104 653.909 770.871 654.142 770.871 654.429C770.871 654.717 771.104 654.95 771.391 654.95Z" fill="black"/>
<path opacity="0.8" d="M765.43 654.95C765.718 654.95 765.951 654.717 765.951 654.429C765.951 654.142 765.718 653.909 765.43 653.909C765.143 653.909 764.91 654.142 764.91 654.429C764.91 654.717 765.143 654.95 765.43 654.95Z" fill="black"/>
</g>
<g opacity="0.8">
<path opacity="0.8" d="M792.877 653.43C793.164 653.43 793.397 653.197 793.397 652.909C793.397 652.622 793.164 652.389 792.877 652.389C792.59 652.389 792.357 652.622 792.357 652.909C792.357 653.197 792.59 653.43 792.877 653.43Z" fill="black"/>
<path opacity="0.8" d="M790.235 654.168C790.522 654.168 790.755 653.935 790.755 653.648C790.755 653.36 790.522 653.127 790.235 653.127C789.948 653.127 789.715 653.36 789.715 653.648C789.715 653.935 789.948 654.168 790.235 654.168Z" fill="black"/>
<path opacity="0.8" d="M786.971 655.209C787.258 655.209 787.491 654.976 787.491 654.689C787.491 654.401 787.258 654.168 786.971 654.168C786.683 654.168 786.45 654.401 786.45 654.689C786.45 654.976 786.683 655.209 786.971 655.209Z" fill="black"/>
<path opacity="0.8" d="M781.118 656.47C781.406 656.47 781.639 656.237 781.639 655.95C781.639 655.662 781.406 655.429 781.118 655.429C780.831 655.429 780.598 655.662 780.598 655.95C780.598 656.237 780.831 656.47 781.118 656.47Z" fill="black"/>
<path opacity="0.8" d="M774.948 657.217C775.235 657.217 775.468 656.984 775.468 656.697C775.468 656.409 775.235 656.176 774.948 656.176C774.66 656.176 774.427 656.409 774.427 656.697C774.427 656.984 774.66 657.217 774.948 657.217Z" fill="black"/>
<path opacity="0.8" d="M768.557 657.511C768.844 657.511 769.078 657.278 769.078 656.99C769.078 656.703 768.844 656.47 768.557 656.47C768.27 656.47 768.037 656.703 768.037 656.99C768.037 657.278 768.27 657.511 768.557 657.511Z" fill="black"/>
<path opacity="0.8" d="M759.384 656.25C759.672 656.25 759.905 656.017 759.905 655.729C759.905 655.442 759.672 655.209 759.384 655.209C759.097 655.209 758.864 655.442 758.864 655.729C758.864 656.017 759.097 656.25 759.384 656.25Z" fill="black"/>
<path opacity="0.8" d="M762.423 656.99C762.711 656.99 762.944 656.757 762.944 656.47C762.944 656.183 762.711 655.95 762.423 655.95C762.136 655.95 761.903 656.183 761.903 656.47C761.903 656.757 762.136 656.99 762.423 656.99Z" fill="black"/>
<path opacity="0.8" d="M753.707 655.209C753.994 655.209 754.227 654.976 754.227 654.689C754.227 654.401 753.994 654.168 753.707 654.168C753.419 654.168 753.186 654.401 753.186 654.689C753.186 654.976 753.419 655.209 753.707 655.209Z" fill="black"/>
<path opacity="0.8" d="M756.441 655.729C756.729 655.729 756.962 655.497 756.962 655.209C756.962 654.922 756.729 654.689 756.441 654.689C756.154 654.689 755.921 654.922 755.921 655.209C755.921 655.497 756.154 655.729 756.441 655.729Z" fill="black"/>
<path opacity="0.8" d="M750.71 654.168C750.998 654.168 751.231 653.935 751.231 653.648C751.231 653.36 750.998 653.127 750.71 653.127C750.423 653.127 750.19 653.36 750.19 653.648C750.19 653.935 750.423 654.168 750.71 654.168Z" fill="black"/>
<path opacity="0.8" d="M783.982 655.95C784.27 655.95 784.503 655.717 784.503 655.429C784.503 655.142 784.27 654.909 783.982 654.909C783.695 654.909 783.462 655.142 783.462 655.429C783.462 655.717 783.695 655.95 783.982 655.95Z" fill="black"/>
<path opacity="0.8" d="M777.944 656.99C778.231 656.99 778.464 656.757 778.464 656.47C778.464 656.183 778.231 655.95 777.944 655.95C777.656 655.95 777.423 656.183 777.423 656.47C777.423 656.757 777.656 656.99 777.944 656.99Z" fill="black"/>
<path opacity="0.8" d="M771.391 657.511C771.679 657.511 771.912 657.278 771.912 656.99C771.912 656.703 771.679 656.47 771.391 656.47C771.104 656.47 770.871 656.703 770.871 656.99C770.871 657.278 771.104 657.511 771.391 657.511Z" fill="black"/>
<path opacity="0.8" d="M765.43 657.511C765.718 657.511 765.951 657.278 765.951 656.99C765.951 656.703 765.718 656.47 765.43 656.47C765.143 656.47 764.91 656.703 764.91 656.99C764.91 657.278 765.143 657.511 765.43 657.511Z" fill="black"/>
</g>
<g opacity="0.8">
<path opacity="0.8" d="M792.877 655.991C793.164 655.991 793.397 655.758 793.397 655.47C793.397 655.183 793.164 654.95 792.877 654.95C792.59 654.95 792.357 655.183 792.357 655.47C792.357 655.758 792.59 655.991 792.877 655.991Z" fill="black"/>
<path opacity="0.8" d="M790.235 656.729C790.522 656.729 790.755 656.496 790.755 656.209C790.755 655.921 790.522 655.688 790.235 655.688C789.948 655.688 789.715 655.921 789.715 656.209C789.715 656.496 789.948 656.729 790.235 656.729Z" fill="black"/>
<path opacity="0.8" d="M786.971 657.77C787.258 657.77 787.491 657.537 787.491 657.25C787.491 656.962 787.258 656.729 786.971 656.729C786.683 656.729 786.45 656.962 786.45 657.25C786.45 657.537 786.683 657.77 786.971 657.77Z" fill="black"/>
<path opacity="0.8" d="M781.118 659.031C781.406 659.031 781.639 658.798 781.639 658.511C781.639 658.223 781.406 657.99 781.118 657.99C780.831 657.99 780.598 658.223 780.598 658.511C780.598 658.798 780.831 659.031 781.118 659.031Z" fill="black"/>
<path opacity="0.8" d="M774.948 659.778C775.235 659.778 775.468 659.545 775.468 659.258C775.468 658.97 775.235 658.737 774.948 658.737C774.66 658.737 774.427 658.97 774.427 659.258C774.427 659.545 774.66 659.778 774.948 659.778Z" fill="black"/>
<path opacity="0.8" d="M768.557 660.072C768.844 660.072 769.078 659.839 769.078 659.551C769.078 659.264 768.844 659.031 768.557 659.031C768.27 659.031 768.037 659.264 768.037 659.551C768.037 659.839 768.27 660.072 768.557 660.072Z" fill="black"/>
<path opacity="0.8" d="M759.384 658.811C759.672 658.811 759.905 658.578 759.905 658.291C759.905 658.003 759.672 657.77 759.384 657.77C759.097 657.77 758.864 658.003 758.864 658.291C758.864 658.578 759.097 658.811 759.384 658.811Z" fill="black"/>
<path opacity="0.8" d="M762.423 659.551C762.711 659.551 762.944 659.318 762.944 659.031C762.944 658.744 762.711 658.511 762.423 658.511C762.136 658.511 761.903 658.744 761.903 659.031C761.903 659.318 762.136 659.551 762.423 659.551Z" fill="black"/>
<path opacity="0.8" d="M753.707 657.77C753.994 657.77 754.227 657.537 754.227 657.25C754.227 656.962 753.994 656.729 753.707 656.729C753.419 656.729 753.186 656.962 753.186 657.25C753.186 657.537 753.419 657.77 753.707 657.77Z" fill="black"/>
<path opacity="0.8" d="M756.441 658.291C756.729 658.291 756.962 658.058 756.962 657.77C756.962 657.483 756.729 657.25 756.441 657.25C756.154 657.25 755.921 657.483 755.921 657.77C755.921 658.058 756.154 658.291 756.441 658.291Z" fill="black"/>
<path opacity="0.8" d="M750.71 656.729C750.998 656.729 751.231 656.496 751.231 656.209C751.231 655.921 750.998 655.688 750.71 655.688C750.423 655.688 750.19 655.921 750.19 656.209C750.19 656.496 750.423 656.729 750.71 656.729Z" fill="black"/>
<path opacity="0.8" d="M783.982 658.511C784.27 658.511 784.503 658.278 784.503 657.99C784.503 657.703 784.27 657.47 783.982 657.47C783.695 657.47 783.462 657.703 783.462 657.99C783.462 658.278 783.695 658.511 783.982 658.511Z" fill="black"/>
<path opacity="0.8" d="M777.944 659.551C778.231 659.551 778.464 659.318 778.464 659.031C778.464 658.744 778.231 658.511 777.944 658.511C777.656 658.511 777.423 658.744 777.423 659.031C777.423 659.318 777.656 659.551 777.944 659.551Z" fill="black"/>
<path opacity="0.8" d="M771.391 660.072C771.679 660.072 771.912 659.839 771.912 659.551C771.912 659.264 771.679 659.031 771.391 659.031C771.104 659.031 770.871 659.264 770.871 659.551C770.871 659.839 771.104 660.072 771.391 660.072Z" fill="black"/>
<path opacity="0.8" d="M765.43 660.072C765.718 660.072 765.951 659.839 765.951 659.551C765.951 659.264 765.718 659.031 765.43 659.031C765.143 659.031 764.91 659.264 764.91 659.551C764.91 659.839 765.143 660.072 765.43 660.072Z" fill="black"/>
</g>
<g opacity="0.8">
<path opacity="0.8" d="M792.877 658.552C793.164 658.552 793.397 658.319 793.397 658.031C793.397 657.744 793.164 657.511 792.877 657.511C792.59 657.511 792.357 657.744 792.357 658.031C792.357 658.319 792.59 658.552 792.877 658.552Z" fill="black"/>
<path opacity="0.8" d="M790.235 659.29C790.522 659.29 790.755 659.057 790.755 658.77C790.755 658.482 790.522 658.249 790.235 658.249C789.948 658.249 789.715 658.482 789.715 658.77C789.715 659.057 789.948 659.29 790.235 659.29Z" fill="black"/>
<path opacity="0.8" d="M786.971 660.331C787.258 660.331 787.491 660.098 787.491 659.811C787.491 659.523 787.258 659.29 786.971 659.29C786.683 659.29 786.45 659.523 786.45 659.811C786.45 660.098 786.683 660.331 786.971 660.331Z" fill="black"/>
<path opacity="0.8" d="M781.118 661.592C781.406 661.592 781.639 661.359 781.639 661.072C781.639 660.784 781.406 660.551 781.118 660.551C780.831 660.551 780.598 660.784 780.598 661.072C780.598 661.359 780.831 661.592 781.118 661.592Z" fill="black"/>
<path opacity="0.8" d="M774.948 662.339C775.235 662.339 775.468 662.106 775.468 661.819C775.468 661.531 775.235 661.298 774.948 661.298C774.66 661.298 774.427 661.531 774.427 661.819C774.427 662.106 774.66 662.339 774.948 662.339Z" fill="black"/>
<path opacity="0.8" d="M768.557 662.633C768.844 662.633 769.078 662.4 769.078 662.112C769.078 661.825 768.844 661.592 768.557 661.592C768.27 661.592 768.037 661.825 768.037 662.112C768.037 662.4 768.27 662.633 768.557 662.633Z" fill="black"/>
<path opacity="0.8" d="M759.384 661.372C759.672 661.372 759.905 661.139 759.905 660.852C759.905 660.564 759.672 660.331 759.384 660.331C759.097 660.331 758.864 660.564 758.864 660.852C758.864 661.139 759.097 661.372 759.384 661.372Z" fill="black"/>
<path opacity="0.8" d="M762.423 662.112C762.711 662.112 762.944 661.879 762.944 661.592C762.944 661.305 762.711 661.072 762.423 661.072C762.136 661.072 761.903 661.305 761.903 661.592C761.903 661.879 762.136 662.112 762.423 662.112Z" fill="black"/>
<path opacity="0.8" d="M753.707 660.331C753.994 660.331 754.227 660.098 754.227 659.811C754.227 659.523 753.994 659.29 753.707 659.29C753.419 659.29 753.186 659.523 753.186 659.811C753.186 660.098 753.419 660.331 753.707 660.331Z" fill="black"/>
<path opacity="0.8" d="M756.441 660.852C756.729 660.852 756.962 660.619 756.962 660.331C756.962 660.044 756.729 659.811 756.441 659.811C756.154 659.811 755.921 660.044 755.921 660.331C755.921 660.619 756.154 660.852 756.441 660.852Z" fill="black"/>
<path opacity="0.8" d="M750.71 659.29C750.998 659.29 751.231 659.057 751.231 658.77C751.231 658.482 750.998 658.249 750.71 658.249C750.423 658.249 750.19 658.482 750.19 658.77C750.19 659.057 750.423 659.29 750.71 659.29Z" fill="black"/>
<path opacity="0.8" d="M783.982 661.072C784.27 661.072 784.503 660.839 784.503 660.551C784.503 660.264 784.27 660.031 783.982 660.031C783.695 660.031 783.462 660.264 783.462 660.551C783.462 660.839 783.695 661.072 783.982 661.072Z" fill="black"/>
<path opacity="0.8" d="M777.944 662.112C778.231 662.112 778.464 661.879 778.464 661.592C778.464 661.305 778.231 661.072 777.944 661.072C777.656 661.072 777.423 661.305 777.423 661.592C777.423 661.879 777.656 662.112 777.944 662.112Z" fill="black"/>
<path opacity="0.8" d="M771.391 662.633C771.679 662.633 771.912 662.4 771.912 662.112C771.912 661.825 771.679 661.592 771.391 661.592C771.104 661.592 770.871 661.825 770.871 662.112C770.871 662.4 771.104 662.633 771.391 662.633Z" fill="black"/>
<path opacity="0.8" d="M765.43 662.633C765.718 662.633 765.951 662.4 765.951 662.112C765.951 661.825 765.718 661.592 765.43 661.592C765.143 661.592 764.91 661.825 764.91 662.112C764.91 662.4 765.143 662.633 765.43 662.633Z" fill="black"/>
</g>
<g opacity="0.8">
<path opacity="0.8" d="M792.877 661.113C793.164 661.113 793.397 660.88 793.397 660.592C793.397 660.305 793.164 660.072 792.877 660.072C792.59 660.072 792.357 660.305 792.357 660.592C792.357 660.88 792.59 661.113 792.877 661.113Z" fill="black"/>
<path opacity="0.8" d="M790.235 661.851C790.522 661.851 790.755 661.618 790.755 661.331C790.755 661.043 790.522 660.81 790.235 660.81C789.948 660.81 789.715 661.043 789.715 661.331C789.715 661.618 789.948 661.851 790.235 661.851Z" fill="black"/>
<path opacity="0.8" d="M786.971 662.892C787.258 662.892 787.491 662.659 787.491 662.372C787.491 662.084 787.258 661.851 786.971 661.851C786.683 661.851 786.45 662.084 786.45 662.372C786.45 662.659 786.683 662.892 786.971 662.892Z" fill="black"/>
<path opacity="0.8" d="M781.118 664.153C781.406 664.153 781.639 663.92 781.639 663.633C781.639 663.345 781.406 663.112 781.118 663.112C780.831 663.112 780.598 663.345 780.598 663.633C780.598 663.92 780.831 664.153 781.118 664.153Z" fill="black"/>
<path opacity="0.8" d="M774.948 664.9C775.235 664.9 775.468 664.667 775.468 664.38C775.468 664.092 775.235 663.859 774.948 663.859C774.66 663.859 774.427 664.092 774.427 664.38C774.427 664.667 774.66 664.9 774.948 664.9Z" fill="black"/>
<path opacity="0.8" d="M768.557 665.194C768.844 665.194 769.078 664.961 769.078 664.673C769.078 664.386 768.844 664.153 768.557 664.153C768.27 664.153 768.037 664.386 768.037 664.673C768.037 664.961 768.27 665.194 768.557 665.194Z" fill="black"/>
<path opacity="0.8" d="M759.384 663.933C759.672 663.933 759.905 663.7 759.905 663.413C759.905 663.125 759.672 662.892 759.384 662.892C759.097 662.892 758.864 663.125 758.864 663.413C758.864 663.7 759.097 663.933 759.384 663.933Z" fill="black"/>
<path opacity="0.8" d="M762.423 664.673C762.711 664.673 762.944 664.44 762.944 664.153C762.944 663.866 762.711 663.633 762.423 663.633C762.136 663.633 761.903 663.866 761.903 664.153C761.903 664.44 762.136 664.673 762.423 664.673Z" fill="black"/>
<path opacity="0.8" d="M753.707 662.892C753.994 662.892 754.227 662.659 754.227 662.372C754.227 662.084 753.994 661.851 753.707 661.851C753.419 661.851 753.186 662.084 753.186 662.372C753.186 662.659 753.419 662.892 753.707 662.892Z" fill="black"/>
<path opacity="0.8" d="M756.441 663.413C756.729 663.413 756.962 663.18 756.962 662.892C756.962 662.605 756.729 662.372 756.441 662.372C756.154 662.372 755.921 662.605 755.921 662.892C755.921 663.18 756.154 663.413 756.441 663.413Z" fill="black"/>
<path opacity="0.8" d="M750.71 661.851C750.998 661.851 751.231 661.618 751.231 661.331C751.231 661.043 750.998 660.81 750.71 660.81C750.423 660.81 750.19 661.043 750.19 661.331C750.19 661.618 750.423 661.851 750.71 661.851Z" fill="black"/>
<path opacity="0.8" d="M783.982 663.633C784.27 663.633 784.503 663.4 784.503 663.112C784.503 662.825 784.27 662.592 783.982 662.592C783.695 662.592 783.462 662.825 783.462 663.112C783.462 663.4 783.695 663.633 783.982 663.633Z" fill="black"/>
<path opacity="0.8" d="M777.944 664.673C778.231 664.673 778.464 664.44 778.464 664.153C778.464 663.866 778.231 663.633 777.944 663.633C777.656 663.633 777.423 663.866 777.423 664.153C777.423 664.44 777.656 664.673 777.944 664.673Z" fill="black"/>
<path opacity="0.8" d="M771.391 665.194C771.679 665.194 771.912 664.961 771.912 664.673C771.912 664.386 771.679 664.153 771.391 664.153C771.104 664.153 770.871 664.386 770.871 664.673C770.871 664.961 771.104 665.194 771.391 665.194Z" fill="black"/>
<path opacity="0.8" d="M765.43 665.194C765.718 665.194 765.951 664.961 765.951 664.673C765.951 664.386 765.718 664.153 765.43 664.153C765.143 664.153 764.91 664.386 764.91 664.673C764.91 664.961 765.143 665.194 765.43 665.194Z" fill="black"/>
</g>
<g opacity="0.8">
<path opacity="0.8" d="M792.877 663.674C793.164 663.674 793.397 663.441 793.397 663.153C793.397 662.866 793.164 662.633 792.877 662.633C792.59 662.633 792.357 662.866 792.357 663.153C792.357 663.441 792.59 663.674 792.877 663.674Z" fill="black"/>
<path opacity="0.8" d="M790.235 664.412C790.522 664.412 790.755 664.179 790.755 663.892C790.755 663.604 790.522 663.371 790.235 663.371C789.948 663.371 789.715 663.604 789.715 663.892C789.715 664.179 789.948 664.412 790.235 664.412Z" fill="black"/>
<path opacity="0.8" d="M786.971 665.453C787.258 665.453 787.491 665.22 787.491 664.933C787.491 664.645 787.258 664.412 786.971 664.412C786.683 664.412 786.45 664.645 786.45 664.933C786.45 665.22 786.683 665.453 786.971 665.453Z" fill="black"/>
<path opacity="0.8" d="M781.118 666.714C781.406 666.714 781.639 666.481 781.639 666.194C781.639 665.906 781.406 665.673 781.118 665.673C780.831 665.673 780.598 665.906 780.598 666.194C780.598 666.481 780.831 666.714 781.118 666.714Z" fill="black"/>
<path opacity="0.8" d="M774.948 667.461C775.235 667.461 775.468 667.228 775.468 666.941C775.468 666.653 775.235 666.42 774.948 666.42C774.66 666.42 774.427 666.653 774.427 666.941C774.427 667.228 774.66 667.461 774.948 667.461Z" fill="black"/>
<path opacity="0.8" d="M768.557 667.755C768.844 667.755 769.078 667.522 769.078 667.234C769.078 666.947 768.844 666.714 768.557 666.714C768.27 666.714 768.037 666.947 768.037 667.234C768.037 667.522 768.27 667.755 768.557 667.755Z" fill="black"/>
<path opacity="0.8" d="M759.384 666.494C759.672 666.494 759.905 666.261 759.905 665.974C759.905 665.686 759.672 665.453 759.384 665.453C759.097 665.453 758.864 665.686 758.864 665.974C758.864 666.261 759.097 666.494 759.384 666.494Z" fill="black"/>
<path opacity="0.8" d="M762.423 667.234C762.711 667.234 762.944 667.001 762.944 666.714C762.944 666.427 762.711 666.194 762.423 666.194C762.136 666.194 761.903 666.427 761.903 666.714C761.903 667.001 762.136 667.234 762.423 667.234Z" fill="black"/>
<path opacity="0.8" d="M753.707 665.453C753.994 665.453 754.227 665.22 754.227 664.933C754.227 664.645 753.994 664.412 753.707 664.412C753.419 664.412 753.186 664.645 753.186 664.933C753.186 665.22 753.419 665.453 753.707 665.453Z" fill="black"/>
<path opacity="0.8" d="M756.441 665.974C756.729 665.974 756.962 665.741 756.962 665.453C756.962 665.166 756.729 664.933 756.441 664.933C756.154 664.933 755.921 665.166 755.921 665.453C755.921 665.741 756.154 665.974 756.441 665.974Z" fill="black"/>
<path opacity="0.8" d="M750.71 664.412C750.998 664.412 751.231 664.179 751.231 663.892C751.231 663.604 750.998 663.371 750.71 663.371C750.423 663.371 750.19 663.604 750.19 663.892C750.19 664.179 750.423 664.412 750.71 664.412Z" fill="black"/>
<path opacity="0.8" d="M783.982 666.194C784.27 666.194 784.503 665.961 784.503 665.673C784.503 665.386 784.27 665.153 783.982 665.153C783.695 665.153 783.462 665.386 783.462 665.673C783.462 665.961 783.695 666.194 783.982 666.194Z" fill="black"/>
<path opacity="0.8" d="M777.944 667.234C778.231 667.234 778.464 667.001 778.464 666.714C778.464 666.427 778.231 666.194 777.944 666.194C777.656 666.194 777.423 666.427 777.423 666.714C777.423 667.001 777.656 667.234 777.944 667.234Z" fill="black"/>
<path opacity="0.8" d="M771.391 667.755C771.679 667.755 771.912 667.522 771.912 667.234C771.912 666.947 771.679 666.714 771.391 666.714C771.104 666.714 770.871 666.947 770.871 667.234C770.871 667.522 771.104 667.755 771.391 667.755Z" fill="black"/>
<path opacity="0.8" d="M765.43 667.755C765.718 667.755 765.951 667.522 765.951 667.234C765.951 666.947 765.718 666.714 765.43 666.714C765.143 666.714 764.91 666.947 764.91 667.234C764.91 667.522 765.143 667.755 765.43 667.755Z" fill="black"/>
</g>
<g opacity="0.8">
<path opacity="0.8" d="M792.877 666.235C793.164 666.235 793.397 666.002 793.397 665.714C793.397 665.427 793.164 665.194 792.877 665.194C792.59 665.194 792.357 665.427 792.357 665.714C792.357 666.002 792.59 666.235 792.877 666.235Z" fill="black"/>
<path opacity="0.8" d="M790.235 666.973C790.522 666.973 790.755 666.74 790.755 666.453C790.755 666.166 790.522 665.932 790.235 665.932C789.948 665.932 789.715 666.166 789.715 666.453C789.715 666.74 789.948 666.973 790.235 666.973Z" fill="black"/>
<path opacity="0.8" d="M786.971 668.014C787.258 668.014 787.491 667.781 787.491 667.494C787.491 667.206 787.258 666.973 786.971 666.973C786.683 666.973 786.45 667.206 786.45 667.494C786.45 667.781 786.683 668.014 786.971 668.014Z" fill="black"/>
<path opacity="0.8" d="M781.118 669.275C781.406 669.275 781.639 669.042 781.639 668.755C781.639 668.467 781.406 668.234 781.118 668.234C780.831 668.234 780.598 668.467 780.598 668.755C780.598 669.042 780.831 669.275 781.118 669.275Z" fill="black"/>
<path opacity="0.8" d="M774.948 670.022C775.235 670.022 775.468 669.789 775.468 669.502C775.468 669.214 775.235 668.981 774.948 668.981C774.66 668.981 774.427 669.214 774.427 669.502C774.427 669.789 774.66 670.022 774.948 670.022Z" fill="black"/>
<path opacity="0.8" d="M768.557 670.316C768.844 670.316 769.078 670.083 769.078 669.796C769.078 669.508 768.844 669.275 768.557 669.275C768.27 669.275 768.037 669.508 768.037 669.796C768.037 670.083 768.27 670.316 768.557 670.316Z" fill="black"/>
<path opacity="0.8" d="M759.384 669.055C759.672 669.055 759.905 668.822 759.905 668.535C759.905 668.247 759.672 668.014 759.384 668.014C759.097 668.014 758.864 668.247 758.864 668.535C758.864 668.822 759.097 669.055 759.384 669.055Z" fill="black"/>
<path opacity="0.8" d="M762.423 669.796C762.711 669.796 762.944 669.563 762.944 669.275C762.944 668.988 762.711 668.755 762.423 668.755C762.136 668.755 761.903 668.988 761.903 669.275C761.903 669.563 762.136 669.796 762.423 669.796Z" fill="black"/>
<path opacity="0.8" d="M753.707 668.014C753.994 668.014 754.227 667.781 754.227 667.494C754.227 667.206 753.994 666.973 753.707 666.973C753.419 666.973 753.186 667.206 753.186 667.494C753.186 667.781 753.419 668.014 753.707 668.014Z" fill="black"/>
<path opacity="0.8" d="M756.441 668.535C756.729 668.535 756.962 668.302 756.962 668.014C756.962 667.727 756.729 667.494 756.441 667.494C756.154 667.494 755.921 667.727 755.921 668.014C755.921 668.302 756.154 668.535 756.441 668.535Z" fill="black"/>
<path opacity="0.8" d="M750.71 666.973C750.998 666.973 751.231 666.74 751.231 666.453C751.231 666.166 750.998 665.932 750.71 665.932C750.423 665.932 750.19 666.166 750.19 666.453C750.19 666.74 750.423 666.973 750.71 666.973Z" fill="black"/>
<path opacity="0.8" d="M783.982 668.755C784.27 668.755 784.503 668.522 784.503 668.234C784.503 667.947 784.27 667.714 783.982 667.714C783.695 667.714 783.462 667.947 783.462 668.234C783.462 668.522 783.695 668.755 783.982 668.755Z" fill="black"/>
<path opacity="0.8" d="M777.944 669.796C778.231 669.796 778.464 669.563 778.464 669.275C778.464 668.988 778.231 668.755 777.944 668.755C777.656 668.755 777.423 668.988 777.423 669.275C777.423 669.563 777.656 669.796 777.944 669.796Z" fill="black"/>
<path opacity="0.8" d="M771.391 670.316C771.679 670.316 771.912 670.083 771.912 669.796C771.912 669.508 771.679 669.275 771.391 669.275C771.104 669.275 770.871 669.508 770.871 669.796C770.871 670.083 771.104 670.316 771.391 670.316Z" fill="black"/>
<path opacity="0.8" d="M765.43 670.316C765.718 670.316 765.951 670.083 765.951 669.796C765.951 669.508 765.718 669.275 765.43 669.275C765.143 669.275 764.91 669.508 764.91 669.796C764.91 670.083 765.143 670.316 765.43 670.316Z" fill="black"/>
</g>
<g opacity="0.8">
<path opacity="0.8" d="M792.877 668.796C793.164 668.796 793.397 668.563 793.397 668.275C793.397 667.988 793.164 667.755 792.877 667.755C792.59 667.755 792.357 667.988 792.357 668.275C792.357 668.563 792.59 668.796 792.877 668.796Z" fill="black"/>
<path opacity="0.8" d="M790.235 669.534C790.522 669.534 790.755 669.301 790.755 669.014C790.755 668.726 790.522 668.494 790.235 668.494C789.948 668.494 789.715 668.726 789.715 669.014C789.715 669.301 789.948 669.534 790.235 669.534Z" fill="black"/>
<path opacity="0.8" d="M786.971 670.575C787.258 670.575 787.491 670.342 787.491 670.055C787.491 669.767 787.258 669.534 786.971 669.534C786.683 669.534 786.45 669.767 786.45 670.055C786.45 670.342 786.683 670.575 786.971 670.575Z" fill="black"/>
<path opacity="0.8" d="M781.118 671.836C781.406 671.836 781.639 671.603 781.639 671.316C781.639 671.028 781.406 670.795 781.118 670.795C780.831 670.795 780.598 671.028 780.598 671.316C780.598 671.603 780.831 671.836 781.118 671.836Z" fill="black"/>
<path opacity="0.8" d="M774.948 672.583C775.235 672.583 775.468 672.35 775.468 672.063C775.468 671.775 775.235 671.542 774.948 671.542C774.66 671.542 774.427 671.775 774.427 672.063C774.427 672.35 774.66 672.583 774.948 672.583Z" fill="black"/>
<path opacity="0.8" d="M768.557 672.877C768.844 672.877 769.078 672.644 769.078 672.357C769.078 672.069 768.844 671.836 768.557 671.836C768.27 671.836 768.037 672.069 768.037 672.357C768.037 672.644 768.27 672.877 768.557 672.877Z" fill="black"/>
<path opacity="0.8" d="M759.384 671.616C759.672 671.616 759.905 671.383 759.905 671.096C759.905 670.808 759.672 670.575 759.384 670.575C759.097 670.575 758.864 670.808 758.864 671.096C758.864 671.383 759.097 671.616 759.384 671.616Z" fill="black"/>
<path opacity="0.8" d="M762.423 672.357C762.711 672.357 762.944 672.124 762.944 671.836C762.944 671.549 762.711 671.316 762.423 671.316C762.136 671.316 761.903 671.549 761.903 671.836C761.903 672.124 762.136 672.357 762.423 672.357Z" fill="black"/>
<path opacity="0.8" d="M753.707 670.575C753.994 670.575 754.227 670.342 754.227 670.055C754.227 669.767 753.994 669.534 753.707 669.534C753.419 669.534 753.186 669.767 753.186 670.055C753.186 670.342 753.419 670.575 753.707 670.575Z" fill="black"/>
<path opacity="0.8" d="M756.441 671.096C756.729 671.096 756.962 670.863 756.962 670.575C756.962 670.288 756.729 670.055 756.441 670.055C756.154 670.055 755.921 670.288 755.921 670.575C755.921 670.863 756.154 671.096 756.441 671.096Z" fill="black"/>
<path opacity="0.8" d="M750.71 669.534C750.998 669.534 751.231 669.301 751.231 669.014C751.231 668.726 750.998 668.494 750.71 668.494C750.423 668.494 750.19 668.726 750.19 669.014C750.19 669.301 750.423 669.534 750.71 669.534Z" fill="black"/>
<path opacity="0.8" d="M783.982 671.316C784.27 671.316 784.503 671.083 784.503 670.795C784.503 670.508 784.27 670.275 783.982 670.275C783.695 670.275 783.462 670.508 783.462 670.795C783.462 671.083 783.695 671.316 783.982 671.316Z" fill="black"/>
<path opacity="0.8" d="M777.944 672.357C778.231 672.357 778.464 672.124 778.464 671.836C778.464 671.549 778.231 671.316 777.944 671.316C777.656 671.316 777.423 671.549 777.423 671.836C777.423 672.124 777.656 672.357 777.944 672.357Z" fill="black"/>
<path opacity="0.8" d="M771.391 672.877C771.679 672.877 771.912 672.644 771.912 672.357C771.912 672.069 771.679 671.836 771.391 671.836C771.104 671.836 770.871 672.069 770.871 672.357C770.871 672.644 771.104 672.877 771.391 672.877Z" fill="black"/>
<path opacity="0.8" d="M765.43 672.877C765.718 672.877 765.951 672.644 765.951 672.357C765.951 672.069 765.718 671.836 765.43 671.836C765.143 671.836 764.91 672.069 764.91 672.357C764.91 672.644 765.143 672.877 765.43 672.877Z" fill="black"/>
</g>
<g opacity="0.8">
<path opacity="0.8" d="M792.877 671.357C793.164 671.357 793.397 671.124 793.397 670.836C793.397 670.549 793.164 670.316 792.877 670.316C792.59 670.316 792.357 670.549 792.357 670.836C792.357 671.124 792.59 671.357 792.877 671.357Z" fill="black"/>
<path opacity="0.8" d="M790.235 672.095C790.522 672.095 790.755 671.862 790.755 671.575C790.755 671.288 790.522 671.055 790.235 671.055C789.948 671.055 789.715 671.288 789.715 671.575C789.715 671.862 789.948 672.095 790.235 672.095Z" fill="black"/>
<path opacity="0.8" d="M786.971 673.136C787.258 673.136 787.491 672.903 787.491 672.616C787.491 672.328 787.258 672.095 786.971 672.095C786.683 672.095 786.45 672.328 786.45 672.616C786.45 672.903 786.683 673.136 786.971 673.136Z" fill="black"/>
<path opacity="0.8" d="M781.118 674.397C781.406 674.397 781.639 674.164 781.639 673.877C781.639 673.589 781.406 673.356 781.118 673.356C780.831 673.356 780.598 673.589 780.598 673.877C780.598 674.164 780.831 674.397 781.118 674.397Z" fill="black"/>
<path opacity="0.8" d="M774.948 675.144C775.235 675.144 775.468 674.911 775.468 674.624C775.468 674.336 775.235 674.103 774.948 674.103C774.66 674.103 774.427 674.336 774.427 674.624C774.427 674.911 774.66 675.144 774.948 675.144Z" fill="black"/>
<path opacity="0.8" d="M768.557 675.438C768.844 675.438 769.078 675.205 769.078 674.918C769.078 674.63 768.844 674.397 768.557 674.397C768.27 674.397 768.037 674.63 768.037 674.918C768.037 675.205 768.27 675.438 768.557 675.438Z" fill="black"/>
<path opacity="0.8" d="M759.384 674.177C759.672 674.177 759.905 673.944 759.905 673.657C759.905 673.369 759.672 673.136 759.384 673.136C759.097 673.136 758.864 673.369 758.864 673.657C758.864 673.944 759.097 674.177 759.384 674.177Z" fill="black"/>
<path opacity="0.8" d="M762.423 674.918C762.711 674.918 762.944 674.685 762.944 674.397C762.944 674.11 762.711 673.877 762.423 673.877C762.136 673.877 761.903 674.11 761.903 674.397C761.903 674.685 762.136 674.918 762.423 674.918Z" fill="black"/>
<path opacity="0.8" d="M753.707 673.136C753.994 673.136 754.227 672.903 754.227 672.616C754.227 672.328 753.994 672.095 753.707 672.095C753.419 672.095 753.186 672.328 753.186 672.616C753.186 672.903 753.419 673.136 753.707 673.136Z" fill="black"/>
<path opacity="0.8" d="M756.441 673.657C756.729 673.657 756.962 673.424 756.962 673.136C756.962 672.849 756.729 672.616 756.441 672.616C756.154 672.616 755.921 672.849 755.921 673.136C755.921 673.424 756.154 673.657 756.441 673.657Z" fill="black"/>
<path opacity="0.8" d="M750.71 672.095C750.998 672.095 751.231 671.862 751.231 671.575C751.231 671.288 750.998 671.055 750.71 671.055C750.423 671.055 750.19 671.288 750.19 671.575C750.19 671.862 750.423 672.095 750.71 672.095Z" fill="black"/>
<path opacity="0.8" d="M783.982 673.877C784.27 673.877 784.503 673.644 784.503 673.356C784.503 673.069 784.27 672.836 783.982 672.836C783.695 672.836 783.462 673.069 783.462 673.356C783.462 673.644 783.695 673.877 783.982 673.877Z" fill="black"/>
<path opacity="0.8" d="M777.944 674.918C778.231 674.918 778.464 674.685 778.464 674.397C778.464 674.11 778.231 673.877 777.944 673.877C777.656 673.877 777.423 674.11 777.423 674.397C777.423 674.685 777.656 674.918 777.944 674.918Z" fill="black"/>
<path opacity="0.8" d="M771.391 675.438C771.679 675.438 771.912 675.205 771.912 674.918C771.912 674.63 771.679 674.397 771.391 674.397C771.104 674.397 770.871 674.63 770.871 674.918C770.871 675.205 771.104 675.438 771.391 675.438Z" fill="black"/>
<path opacity="0.8" d="M765.43 675.438C765.718 675.438 765.951 675.205 765.951 674.918C765.951 674.63 765.718 674.397 765.43 674.397C765.143 674.397 764.91 674.63 764.91 674.918C764.91 675.205 765.143 675.438 765.43 675.438Z" fill="black"/>
</g>
<g opacity="0.8">
<path opacity="0.8" d="M792.877 673.918C793.164 673.918 793.397 673.685 793.397 673.397C793.397 673.11 793.164 672.877 792.877 672.877C792.59 672.877 792.357 673.11 792.357 673.397C792.357 673.685 792.59 673.918 792.877 673.918Z" fill="black"/>
<path opacity="0.8" d="M790.235 674.656C790.522 674.656 790.755 674.423 790.755 674.136C790.755 673.849 790.522 673.616 790.235 673.616C789.948 673.616 789.715 673.849 789.715 674.136C789.715 674.423 789.948 674.656 790.235 674.656Z" fill="black"/>
<path opacity="0.8" d="M786.971 675.697C787.258 675.697 787.491 675.464 787.491 675.177C787.491 674.889 787.258 674.656 786.971 674.656C786.683 674.656 786.45 674.889 786.45 675.177C786.45 675.464 786.683 675.697 786.971 675.697Z" fill="black"/>
<path opacity="0.8" d="M781.118 676.958C781.406 676.958 781.639 676.725 781.639 676.438C781.639 676.15 781.406 675.917 781.118 675.917C780.831 675.917 780.598 676.15 780.598 676.438C780.598 676.725 780.831 676.958 781.118 676.958Z" fill="black"/>
<path opacity="0.8" d="M774.948 677.705C775.235 677.705 775.468 677.472 775.468 677.185C775.468 676.897 775.235 676.664 774.948 676.664C774.66 676.664 774.427 676.897 774.427 677.185C774.427 677.472 774.66 677.705 774.948 677.705Z" fill="black"/>
<path opacity="0.8" d="M768.557 677.999C768.844 677.999 769.078 677.766 769.078 677.479C769.078 677.191 768.844 676.958 768.557 676.958C768.27 676.958 768.037 677.191 768.037 677.479C768.037 677.766 768.27 677.999 768.557 677.999Z" fill="black"/>
<path opacity="0.8" d="M759.384 676.738C759.672 676.738 759.905 676.505 759.905 676.218C759.905 675.93 759.672 675.697 759.384 675.697C759.097 675.697 758.864 675.93 758.864 676.218C758.864 676.505 759.097 676.738 759.384 676.738Z" fill="black"/>
<path opacity="0.8" d="M762.423 677.479C762.711 677.479 762.944 677.246 762.944 676.958C762.944 676.671 762.711 676.438 762.423 676.438C762.136 676.438 761.903 676.671 761.903 676.958C761.903 677.246 762.136 677.479 762.423 677.479Z" fill="black"/>
<path opacity="0.8" d="M753.707 675.697C753.994 675.697 754.227 675.464 754.227 675.177C754.227 674.889 753.994 674.656 753.707 674.656C753.419 674.656 753.186 674.889 753.186 675.177C753.186 675.464 753.419 675.697 753.707 675.697Z" fill="black"/>
<path opacity="0.8" d="M756.441 676.218C756.729 676.218 756.962 675.985 756.962 675.697C756.962 675.41 756.729 675.177 756.441 675.177C756.154 675.177 755.921 675.41 755.921 675.697C755.921 675.985 756.154 676.218 756.441 676.218Z" fill="black"/>
<path opacity="0.8" d="M750.71 674.656C750.998 674.656 751.231 674.423 751.231 674.136C751.231 673.849 750.998 673.616 750.71 673.616C750.423 673.616 750.19 673.849 750.19 674.136C750.19 674.423 750.423 674.656 750.71 674.656Z" fill="black"/>
<path opacity="0.8" d="M783.982 676.438C784.27 676.438 784.503 676.205 784.503 675.917C784.503 675.63 784.27 675.397 783.982 675.397C783.695 675.397 783.462 675.63 783.462 675.917C783.462 676.205 783.695 676.438 783.982 676.438Z" fill="black"/>
<path opacity="0.8" d="M777.944 677.479C778.231 677.479 778.464 677.246 778.464 676.958C778.464 676.671 778.231 676.438 777.944 676.438C777.656 676.438 777.423 676.671 777.423 676.958C777.423 677.246 777.656 677.479 777.944 677.479Z" fill="black"/>
<path opacity="0.8" d="M771.391 677.999C771.679 677.999 771.912 677.766 771.912 677.479C771.912 677.191 771.679 676.958 771.391 676.958C771.104 676.958 770.871 677.191 770.871 677.479C770.871 677.766 771.104 677.999 771.391 677.999Z" fill="black"/>
<path opacity="0.8" d="M765.43 677.999C765.718 677.999 765.951 677.766 765.951 677.479C765.951 677.191 765.718 676.958 765.43 676.958C765.143 676.958 764.91 677.191 764.91 677.479C764.91 677.766 765.143 677.999 765.43 677.999Z" fill="black"/>
</g>
<g opacity="0.8">
<path opacity="0.8" d="M792.877 676.479C793.164 676.479 793.397 676.246 793.397 675.958C793.397 675.671 793.164 675.438 792.877 675.438C792.59 675.438 792.357 675.671 792.357 675.958C792.357 676.246 792.59 676.479 792.877 676.479Z" fill="black"/>
<path opacity="0.8" d="M790.235 677.217C790.522 677.217 790.755 676.984 790.755 676.697C790.755 676.41 790.522 676.177 790.235 676.177C789.948 676.177 789.715 676.41 789.715 676.697C789.715 676.984 789.948 677.217 790.235 677.217Z" fill="black"/>
<path opacity="0.8" d="M786.971 678.258C787.258 678.258 787.491 678.025 787.491 677.738C787.491 677.45 787.258 677.217 786.971 677.217C786.683 677.217 786.45 677.45 786.45 677.738C786.45 678.025 786.683 678.258 786.971 678.258Z" fill="black"/>
<path opacity="0.8" d="M781.118 679.519C781.406 679.519 781.639 679.286 781.639 678.999C781.639 678.711 781.406 678.478 781.118 678.478C780.831 678.478 780.598 678.711 780.598 678.999C780.598 679.286 780.831 679.519 781.118 679.519Z" fill="black"/>
<path opacity="0.8" d="M774.948 680.266C775.235 680.266 775.468 680.033 775.468 679.746C775.468 679.458 775.235 679.225 774.948 679.225C774.66 679.225 774.427 679.458 774.427 679.746C774.427 680.033 774.66 680.266 774.948 680.266Z" fill="black"/>
<path opacity="0.8" d="M768.557 680.56C768.844 680.56 769.078 680.327 769.078 680.04C769.078 679.752 768.844 679.519 768.557 679.519C768.27 679.519 768.037 679.752 768.037 680.04C768.037 680.327 768.27 680.56 768.557 680.56Z" fill="black"/>
<path opacity="0.8" d="M759.384 679.299C759.672 679.299 759.905 679.066 759.905 678.779C759.905 678.491 759.672 678.258 759.384 678.258C759.097 678.258 758.864 678.491 758.864 678.779C758.864 679.066 759.097 679.299 759.384 679.299Z" fill="black"/>
<path opacity="0.8" d="M762.423 680.04C762.711 680.04 762.944 679.807 762.944 679.519C762.944 679.232 762.711 678.999 762.423 678.999C762.136 678.999 761.903 679.232 761.903 679.519C761.903 679.807 762.136 680.04 762.423 680.04Z" fill="black"/>
<path opacity="0.8" d="M753.707 678.258C753.994 678.258 754.227 678.025 754.227 677.738C754.227 677.45 753.994 677.217 753.707 677.217C753.419 677.217 753.186 677.45 753.186 677.738C753.186 678.025 753.419 678.258 753.707 678.258Z" fill="black"/>
<path opacity="0.8" d="M756.441 678.779C756.729 678.779 756.962 678.546 756.962 678.258C756.962 677.971 756.729 677.738 756.441 677.738C756.154 677.738 755.921 677.971 755.921 678.258C755.921 678.546 756.154 678.779 756.441 678.779Z" fill="black"/>
<path opacity="0.8" d="M750.71 677.217C750.998 677.217 751.231 676.984 751.231 676.697C751.231 676.41 750.998 676.177 750.71 676.177C750.423 676.177 750.19 676.41 750.19 676.697C750.19 676.984 750.423 677.217 750.71 677.217Z" fill="black"/>
<path opacity="0.8" d="M783.982 678.999C784.27 678.999 784.503 678.766 784.503 678.478C784.503 678.191 784.27 677.958 783.982 677.958C783.695 677.958 783.462 678.191 783.462 678.478C783.462 678.766 783.695 678.999 783.982 678.999Z" fill="black"/>
<path opacity="0.8" d="M777.944 680.04C778.231 680.04 778.464 679.807 778.464 679.519C778.464 679.232 778.231 678.999 777.944 678.999C777.656 678.999 777.423 679.232 777.423 679.519C777.423 679.807 777.656 680.04 777.944 680.04Z" fill="black"/>
<path opacity="0.8" d="M771.391 680.56C771.679 680.56 771.912 680.327 771.912 680.04C771.912 679.752 771.679 679.519 771.391 679.519C771.104 679.519 770.871 679.752 770.871 680.04C770.871 680.327 771.104 680.56 771.391 680.56Z" fill="black"/>
<path opacity="0.8" d="M765.43 680.56C765.718 680.56 765.951 680.327 765.951 680.04C765.951 679.752 765.718 679.519 765.43 679.519C765.143 679.519 764.91 679.752 764.91 680.04C764.91 680.327 765.143 680.56 765.43 680.56Z" fill="black"/>
</g>
<g opacity="0.8">
<path opacity="0.8" d="M792.877 679.04C793.164 679.04 793.397 678.807 793.397 678.519C793.397 678.232 793.164 677.999 792.877 677.999C792.59 677.999 792.357 678.232 792.357 678.519C792.357 678.807 792.59 679.04 792.877 679.04Z" fill="black"/>
<path opacity="0.8" d="M790.235 679.778C790.522 679.778 790.755 679.545 790.755 679.258C790.755 678.971 790.522 678.738 790.235 678.738C789.948 678.738 789.715 678.971 789.715 679.258C789.715 679.545 789.948 679.778 790.235 679.778Z" fill="black"/>
<path opacity="0.8" d="M786.971 680.819C787.258 680.819 787.491 680.586 787.491 680.299C787.491 680.011 787.258 679.778 786.971 679.778C786.683 679.778 786.45 680.011 786.45 680.299C786.45 680.586 786.683 680.819 786.971 680.819Z" fill="black"/>
<path opacity="0.8" d="M781.118 682.08C781.406 682.08 781.639 681.847 781.639 681.56C781.639 681.272 781.406 681.039 781.118 681.039C780.831 681.039 780.598 681.272 780.598 681.56C780.598 681.847 780.831 682.08 781.118 682.08Z" fill="black"/>
<path opacity="0.8" d="M774.948 682.827C775.235 682.827 775.468 682.594 775.468 682.307C775.468 682.019 775.235 681.786 774.948 681.786C774.66 681.786 774.427 682.019 774.427 682.307C774.427 682.594 774.66 682.827 774.948 682.827Z" fill="black"/>
<path opacity="0.8" d="M768.557 683.121C768.844 683.121 769.078 682.888 769.078 682.601C769.078 682.313 768.844 682.08 768.557 682.08C768.27 682.08 768.037 682.313 768.037 682.601C768.037 682.888 768.27 683.121 768.557 683.121Z" fill="black"/>
<path opacity="0.8" d="M759.384 681.86C759.672 681.86 759.905 681.627 759.905 681.34C759.905 681.052 759.672 680.819 759.384 680.819C759.097 680.819 758.864 681.052 758.864 681.34C758.864 681.627 759.097 681.86 759.384 681.86Z" fill="black"/>
<path opacity="0.8" d="M762.423 682.601C762.711 682.601 762.944 682.368 762.944 682.08C762.944 681.793 762.711 681.56 762.423 681.56C762.136 681.56 761.903 681.793 761.903 682.08C761.903 682.368 762.136 682.601 762.423 682.601Z" fill="black"/>
<path opacity="0.8" d="M753.707 680.819C753.994 680.819 754.227 680.586 754.227 680.299C754.227 680.011 753.994 679.778 753.707 679.778C753.419 679.778 753.186 680.011 753.186 680.299C753.186 680.586 753.419 680.819 753.707 680.819Z" fill="black"/>
<path opacity="0.8" d="M756.441 681.34C756.729 681.34 756.962 681.107 756.962 680.819C756.962 680.532 756.729 680.299 756.441 680.299C756.154 680.299 755.921 680.532 755.921 680.819C755.921 681.107 756.154 681.34 756.441 681.34Z" fill="black"/>
<path opacity="0.8" d="M750.71 679.778C750.998 679.778 751.231 679.545 751.231 679.258C751.231 678.971 750.998 678.738 750.71 678.738C750.423 678.738 750.19 678.971 750.19 679.258C750.19 679.545 750.423 679.778 750.71 679.778Z" fill="black"/>
<path opacity="0.8" d="M783.982 681.56C784.27 681.56 784.503 681.327 784.503 681.039C784.503 680.752 784.27 680.519 783.982 680.519C783.695 680.519 783.462 680.752 783.462 681.039C783.462 681.327 783.695 681.56 783.982 681.56Z" fill="black"/>
<path opacity="0.8" d="M777.944 682.601C778.231 682.601 778.464 682.368 778.464 682.08C778.464 681.793 778.231 681.56 777.944 681.56C777.656 681.56 777.423 681.793 777.423 682.08C777.423 682.368 777.656 682.601 777.944 682.601Z" fill="black"/>
<path opacity="0.8" d="M771.391 683.121C771.679 683.121 771.912 682.888 771.912 682.601C771.912 682.313 771.679 682.08 771.391 682.08C771.104 682.08 770.871 682.313 770.871 682.601C770.871 682.888 771.104 683.121 771.391 683.121Z" fill="black"/>
<path opacity="0.8" d="M765.43 683.121C765.718 683.121 765.951 682.888 765.951 682.601C765.951 682.313 765.718 682.08 765.43 682.08C765.143 682.08 764.91 682.313 764.91 682.601C764.91 682.888 765.143 683.121 765.43 683.121Z" fill="black"/>
</g>
</g>
<defs>
<clipPath id="clip0">
<rect width="820" height="725.174" fill="white"/>
</clipPath>
</defs>
</svg>
