<?xml version="1.0" encoding="utf-8"?>
<!-- Generator: Adobe Illustrator 24.1.3, SVG Export Plug-In . SVG Version: 6.00 Build 0)  -->
<svg version="1.1" id="Layer_1" xmlns="http://www.w3.org/2000/svg" xmlns:xlink="http://www.w3.org/1999/xlink" x="0px" y="0px"
	 viewBox="0 0 274 293" style="enable-background:new 0 0 274 293;" xml:space="preserve">
<g transform="translate(0.000000,500.000000) scale(0.100000,-0.100000)" fill="lightgreen">
	<path d="M254,4886.3c-51-13-91-42-116-85l-23-41v-500v-500l25-45c18-32,38-52,70-67c42-22,56-23,252-23h208v-648v-647l93-93l92-92
		h178h177v28c1,15,0,100,0,190l-1,162h86h85v85v85h-84h-84l-1,101l-2,100l68-1c112-3,103-11,103,80s9,83-103,80l-68-1l2,95l1,96h84
		h84v90v90h60c33,0,60-1,60-3s43-184,95-406s92-407,90-412c-3-4-1-10,4-13s12-22,15-41l7-35h104h103l31,133c18,72,34,139,38,147
		c3,8,7,26,9,39c4,30,53,241,61,261c3,8,7,24,8,35c2,11,17,79,34,151s31,134,31,138c0,3-36,6-79,6h-79l-17-77c-9-43-19-85-22-93
		s-6-18-5-22c1-3-12-66-28-140c-28-123-33-146-44-203c-2-11-11-65-21-120c-9-55-18-101-19-103c-2-1-9,34-16,80
		c-10,71-121,609-136,661c-4,13-16,17-53,17h-48l-2,100l-1,99h121c113,0,126,2,175,27c29,15,52,30,51,33c0,3,7,20,16,38
		c15,29,17,80,17,531c0,551,0,548-62,595c-18,13-48,29-67,36C1772,4897.3,308,4898.3,254,4886.3z M1390,4345.3v-190l-362,2l-363,3
		l-3,175c-1,96,0,180,2,187c4,10,81,13,366,13h360V4345.3z"/>
	<path d="M2220,2970.3v-455h200h200v70v69l-117,3l-118,3l-3,128l-3,127h116h115v70c0,80,16,72-137,70l-93-1v116v116l98-1
		c159-2,142-10,142,70v70h-200h-200V2970.3z"/>
</g>
</svg>
